{
  "source": "C:\\Users\\Peter\\Desktop\\stuff\\MIUN\\quantitative_research\\video_compression\\videos\\HEVC_CLASS_B\\BQTerrace_1920x1080_60.y4m",
  "output": "C:\\Users\\Peter\\Desktop\\stuff\\MIUN\\quantitative_research\\video_compression\\compressed_videos\\HEVC_CLASS_B\\hevc\\1.5\\BQTerrace_1920x1080_60_hevc.mp4",
  "codec": "hevc",
  "ok": "Input #0, yuv4mpegpipe, from 'C:\\Users\\Peter\\Desktop\\stuff\\MIUN\\quantitative_research\\video_compression\\videos\\HEVC_CLASS_B\\BQTerrace_1920x1080_60.y4m':\n  Duration: 00:00:10.00, start: 0.000000, bitrate: 1492994 kb/s\n  Stream #0:0: Video: rawvideo (I420 / 0x30323449), yuv420p(progressive), 1920x1080, 60 fps, 60 tbr, 60 tbn\n[out#0/mp4 @ 00000249ff93b680] Codec AVOption b:a (set bitrate (in bits/s)) has not been used for any stream. The most likely reason is either wrong type (e.g. a video option with no video streams) or that it is a private option of some decoder which was not actually used for any stream.\nStream mapping:\n  Stream #0:0 -> #0:0 (rawvideo (native) -> hevc (libx265))\nPress [q] to stop, [?] for help\n[libx265 @ 00000249ff93cac0] Unknown option: \"aq-mode.\nx265 [info]: HEVC encoder version 4.1+190-8f11c33ac\nx265 [info]: build info [Windows][GCC 15.1.0][64 bit] 10bit\nx265 [info]: using cpu capabilities: MMX2 SSE2Fast LZCNT SSSE3 SSE4.2 AVX FMA3 BMI2 AVX2\nx265 [info]: Main 10 profile, Level-4.1 (Main tier)\nx265 [info]: Thread pool created using 12 threads\nx265 [info]: Slices                              : 1\nx265 [info]: frame threads / pool features       : 3 / wpp(17 rows)\nx265 [info]: Coding QT: max CU size, min CU size : 64 / 8\nx265 [info]: Residual QT: max TU size, max depth : 32 / 1 inter / 1 intra\nx265 [info]: ME / range / subpel / merge         : star / 57 / 3 / 3\nx265 [info]: Keyframe min / max / scenecut / bias  : 25 / 250 / 40 / 5.00 \nx265 [info]: Lookahead / bframes / badapt        : 25 / 4 / 2\nx265 [info]: b-pyramid / weightp / weightb       : 1 / 1 / 0\nx265 [info]: References / ref-limit  cu / depth  : 4 / on / on\nx265 [info]: AQ: mode / str / qg-size / cu-tree  : 2 / 1.0 / 32 / 1\nx265 [info]: Rate Control / qCompress            : ABR-1500 kbps / 0.60\nx265 [info]: VBV/HRD buffer / max-rate / init    : 1500 / 1500 / 0.750\nx265 [info]: tools: rect limit-modes rd=4 psy-rd=2.00 rdoq=2 psy-rdoq=1.00\nx265 [info]: tools: rskip mode=1 signhide tmvp strong-intra-smoothing lslices=4\nx265 [info]: tools: deblock sao dhdr10-info\nOutput #0, mp4, to 'C:\\Users\\Peter\\Desktop\\stuff\\MIUN\\quantitative_research\\video_compression\\compressed_videos\\HEVC_CLASS_B\\hevc\\1.5\\BQTerrace_1920x1080_60_hevc.mp4':\n  Metadata:\n    encoder         : Lavf62.3.100\n  Stream #0:0: Video: hevc (hev1 / 0x31766568), yuv420p10le(tv, progressive), 1920x1080, q=2-31, 1500 kb/s, 60 fps, 15360 tbn\n    Metadata:\n      encoder         : Lavc62.11.100 libx265\n    Side data:\n      cpb: bitrate max/min/avg: 1500000/0/1500000 buffer size: 1500000 vbv_delay: N/A\nframe=    0 fps=0.0 q=0.0 size=       0KiB time=N/A bitrate=N/A speed=N/A elapsed=0:00:01.32    \nframe=    0 fps=0.0 q=0.0 size=       0KiB time=N/A bitrate=N/A speed=N/A elapsed=0:00:01.85    \nframe=    0 fps=0.0 q=0.0 size=       0KiB time=N/A bitrate=N/A speed=N/A elapsed=0:00:02.58    \nframe=    0 fps=0.0 q=0.0 size=       0KiB time=N/A bitrate=N/A speed=N/A elapsed=0:00:03.15    \nframe=    0 fps=0.0 q=0.0 size=       0KiB time=N/A bitrate=N/A speed=N/A elapsed=0:00:03.69    \nframe=    0 fps=0.0 q=0.0 size=       0KiB time=N/A bitrate=N/A speed=N/A elapsed=0:00:04.24    \nframe=    0 fps=0.0 q=0.0 size=       0KiB time=N/A bitrate=N/A speed=N/A elapsed=0:00:04.82    \nframe=    0 fps=0.0 q=0.0 size=       0KiB time=N/A bitrate=N/A speed=N/A elapsed=0:00:05.40    \nframe=    0 fps=0.0 q=0.0 size=       0KiB time=N/A bitrate=N/A speed=N/A elapsed=0:00:05.95    \nframe=    0 fps=0.0 q=0.0 size=       0KiB time=N/A bitrate=N/A speed=N/A elapsed=0:00:06.52    \nframe=    0 fps=0.0 q=0.0 size=       0KiB time=N/A bitrate=N/A speed=N/A elapsed=0:00:07.04    \nframe=    0 fps=0.0 q=0.0 size=       0KiB time=N/A bitrate=N/A speed=N/A elapsed=0:00:07.55    \nframe=    0 fps=0.0 q=0.0 size=       0KiB time=N/A bitrate=N/A speed=N/A elapsed=0:00:08.09    \nframe=    0 fps=0.0 q=0.0 size=       0KiB time=N/A bitrate=N/A speed=N/A elapsed=0:00:08.64    \nframe=    0 fps=0.0 q=0.0 size=       0KiB time=N/A bitrate=N/A speed=N/A elapsed=0:00:09.18    \nframe=    0 fps=0.0 q=0.0 size=       0KiB time=N/A bitrate=N/A speed=N/A elapsed=0:00:09.70    \nframe=    0 fps=0.0 q=0.0 size=       0KiB time=N/A bitrate=N/A speed=N/A elapsed=0:00:10.21    \nframe=    0 fps=0.0 q=0.0 size=       0KiB time=N/A bitrate=N/A speed=N/A elapsed=0:00:10.75    \nframe=    0 fps=0.0 q=0.0 size=       0KiB time=N/A bitrate=N/A speed=N/A elapsed=0:00:11.29    \nframe=    0 fps=0.0 q=0.0 size=       0KiB time=N/A bitrate=N/A speed=N/A elapsed=0:00:11.83    \nframe=    0 fps=0.0 q=0.0 size=       0KiB time=N/A bitrate=N/A speed=N/A elapsed=0:00:12.34    \nframe=    0 fps=0.0 q=0.0 size=       0KiB time=N/A bitrate=N/A speed=N/A elapsed=0:00:12.88    \nframe=    0 fps=0.0 q=0.0 size=       0KiB time=N/A bitrate=N/A speed=N/A elapsed=0:00:13.41    \nframe=    0 fps=0.0 q=0.0 size=       0KiB time=N/A bitrate=N/A speed=N/A elapsed=0:00:13.94    \nframe=    0 fps=0.0 q=0.0 size=       0KiB time=N/A bitrate=N/A speed=N/A elapsed=0:00:14.47    \nframe=    0 fps=0.0 q=0.0 size=       0KiB time=N/A bitrate=N/A speed=N/A elapsed=0:00:14.99    \nframe=    0 fps=0.0 q=0.0 size=       0KiB time=N/A bitrate=N/A speed=N/A elapsed=0:00:15.54    \nframe=    0 fps=0.0 q=0.0 size=       0KiB time=N/A bitrate=N/A speed=N/A elapsed=0:00:16.07    \nframe=    0 fps=0.0 q=0.0 size=       0KiB time=N/A bitrate=N/A speed=N/A elapsed=0:00:16.59    \nframe=    0 fps=0.0 q=0.0 size=       0KiB time=N/A bitrate=N/A speed=N/A elapsed=0:00:17.12    \nframe=    0 fps=0.0 q=0.0 size=       0KiB time=N/A bitrate=N/A speed=N/A elapsed=0:00:17.69    \nframe=    0 fps=0.0 q=0.0 size=       0KiB time=N/A bitrate=N/A speed=N/A elapsed=0:00:18.25    \nframe=    1 fps=0.1 q=47.4 size=       0KiB time=-00:00:00.01 bitrate=N/A speed=N/A elapsed=0:00:18.77    \nframe=    2 fps=0.1 q=51.0 size=       0KiB time=00:00:00.00 bitrate=N/A speed=   0x elapsed=0:00:19.33    \nframe=    2 fps=0.1 q=51.0 size=       0KiB time=00:00:00.00 bitrate=N/A speed=   0x elapsed=0:00:19.91    \nframe=    3 fps=0.1 q=51.0 size=       0KiB time=00:00:00.01 bitrate=  21.1kbits/s speed=0.000813x elapsed=0:00:20.50    \nframe=    4 fps=0.2 q=51.0 size=       0KiB time=00:00:00.03 bitrate=  10.6kbits/s speed=0.00158x elapsed=0:00:21.05    \nframe=    4 fps=0.2 q=51.0 size=       0KiB time=00:00:00.03 bitrate=  10.6kbits/s speed=0.00154x elapsed=0:00:21.62    \nframe=    4 fps=0.2 q=51.0 size=       0KiB time=00:00:00.03 bitrate=  10.6kbits/s speed=0.00151x elapsed=0:00:22.14    \nframe=    4 fps=0.2 q=51.0 size=       0KiB time=00:00:00.03 bitrate=  10.6kbits/s speed=0.00147x elapsed=0:00:22.73    \nframe=    4 fps=0.2 q=51.0 size=       0KiB time=00:00:00.03 bitrate=  10.6kbits/s speed=0.00143x elapsed=0:00:23.32    \nframe=    4 fps=0.2 q=51.0 size=       0KiB time=00:00:00.03 bitrate=  10.6kbits/s speed=0.00139x elapsed=0:00:23.92    \nframe=    4 fps=0.2 q=51.0 size=       0KiB time=00:00:00.03 bitrate=  10.6kbits/s speed=0.00136x elapsed=0:00:24.59    \nframe=    4 fps=0.2 q=51.0 size=       0KiB time=00:00:00.03 bitrate=  10.6kbits/s speed=0.00133x elapsed=0:00:25.12    \nframe=    5 fps=0.2 q=46.9 size=       0KiB time=00:00:00.05 bitrate=   7.0kbits/s speed=0.00195x elapsed=0:00:25.66    \nframe=    5 fps=0.2 q=46.9 size=       0KiB time=00:00:00.05 bitrate=   7.0kbits/s speed=0.00191x elapsed=0:00:26.17    \nframe=    5 fps=0.2 q=46.9 size=       0KiB time=00:00:00.05 bitrate=   7.0kbits/s speed=0.00187x elapsed=0:00:26.69    \nframe=    5 fps=0.2 q=46.9 size=       0KiB time=00:00:00.05 bitrate=   7.0kbits/s speed=0.00184x elapsed=0:00:27.20    \nframe=    5 fps=0.2 q=46.9 size=       0KiB time=00:00:00.05 bitrate=   7.0kbits/s speed=0.0018x elapsed=0:00:27.73    \nframe=    5 fps=0.2 q=46.9 size=       0KiB time=00:00:00.05 bitrate=   7.0kbits/s speed=0.00177x elapsed=0:00:28.25    \nframe=    5 fps=0.2 q=46.9 size=       0KiB time=00:00:00.05 bitrate=   7.0kbits/s speed=0.00174x elapsed=0:00:28.78    \nframe=    5 fps=0.2 q=46.9 size=       0KiB time=00:00:00.05 bitrate=   7.0kbits/s speed=0.00171x elapsed=0:00:29.31    \nframe=    5 fps=0.2 q=46.9 size=       0KiB time=00:00:00.05 bitrate=   7.0kbits/s speed=0.00167x elapsed=0:00:29.88    \nframe=    5 fps=0.2 q=46.9 size=       0KiB time=00:00:00.05 bitrate=   7.0kbits/s speed=0.00164x elapsed=0:00:30.44    \nframe=    5 fps=0.2 q=46.9 size=       0KiB time=00:00:00.05 bitrate=   7.0kbits/s speed=0.00161x elapsed=0:00:31.01    \nframe=    5 fps=0.2 q=46.9 size=       0KiB time=00:00:00.05 bitrate=   7.0kbits/s speed=0.00159x elapsed=0:00:31.53    \nframe=    6 fps=0.2 q=51.0 size=       0KiB time=00:00:00.06 bitrate=   5.3kbits/s speed=0.00208x elapsed=0:00:32.05    \nframe=    6 fps=0.2 q=51.0 size=       0KiB time=00:00:00.06 bitrate=   5.3kbits/s speed=0.00204x elapsed=0:00:32.63    \nframe=    6 fps=0.2 q=51.0 size=       0KiB time=00:00:00.06 bitrate=   5.3kbits/s speed=0.00201x elapsed=0:00:33.22    \nframe=    6 fps=0.2 q=51.0 size=       0KiB time=00:00:00.06 bitrate=   5.3kbits/s speed=0.00198x elapsed=0:00:33.75    \nframe=    6 fps=0.2 q=51.0 size=       0KiB time=00:00:00.06 bitrate=   5.3kbits/s speed=0.00194x elapsed=0:00:34.28    \nframe=    6 fps=0.2 q=51.0 size=       0KiB time=00:00:00.06 bitrate=   5.3kbits/s speed=0.00191x elapsed=0:00:34.83    \nframe=    6 fps=0.2 q=51.0 size=       0KiB time=00:00:00.06 bitrate=   5.3kbits/s speed=0.00188x elapsed=0:00:35.47    \nframe=    6 fps=0.2 q=51.0 size=       0KiB time=00:00:00.06 bitrate=   5.3kbits/s speed=0.00185x elapsed=0:00:36.09    \nframe=    6 fps=0.2 q=51.0 size=       0KiB time=00:00:00.06 bitrate=   5.3kbits/s speed=0.00182x elapsed=0:00:36.63    \nframe=    7 fps=0.2 q=49.0 size=       0KiB time=00:00:00.08 bitrate=   4.2kbits/s speed=0.00224x elapsed=0:00:37.18    \nframe=    7 fps=0.2 q=49.0 size=       0KiB time=00:00:00.08 bitrate=   4.2kbits/s speed=0.0022x elapsed=0:00:37.80    \nframe=    7 fps=0.2 q=49.0 size=       0KiB time=00:00:00.08 bitrate=   4.2kbits/s speed=0.00217x elapsed=0:00:38.41    \nframe=    7 fps=0.2 q=49.0 size=       0KiB time=00:00:00.08 bitrate=   4.2kbits/s speed=0.00214x elapsed=0:00:38.93    \nframe=    8 fps=0.2 q=43.5 size=       0KiB time=00:00:00.10 bitrate=   3.5kbits/s speed=0.00253x elapsed=0:00:39.48    \nframe=    8 fps=0.2 q=43.5 size=       0KiB time=00:00:00.10 bitrate=   3.5kbits/s speed=0.0025x elapsed=0:00:40.06    \nframe=    9 fps=0.2 q=49.0 size=       0KiB time=00:00:00.11 bitrate=   3.0kbits/s speed=0.00287x elapsed=0:00:40.61    \nframe=   10 fps=0.2 q=47.0 size=       0KiB time=00:00:00.13 bitrate=   2.6kbits/s speed=0.00324x elapsed=0:00:41.15    \nframe=   10 fps=0.2 q=47.0 size=       0KiB time=00:00:00.13 bitrate=   2.6kbits/s speed=0.0032x elapsed=0:00:41.72    \nframe=   11 fps=0.3 q=50.0 size=       0KiB time=00:00:00.15 bitrate=   2.3kbits/s speed=0.00355x elapsed=0:00:42.27    \nframe=   11 fps=0.3 q=50.0 size=       0KiB time=00:00:00.15 bitrate=   2.3kbits/s speed=0.0035x elapsed=0:00:42.80    \nframe=   11 fps=0.3 q=50.0 size=       0KiB time=00:00:00.15 bitrate=   2.3kbits/s speed=0.00346x elapsed=0:00:43.32    \nframe=   11 fps=0.3 q=50.0 size=       0KiB time=00:00:00.15 bitrate=   2.3kbits/s speed=0.00342x elapsed=0:00:43.84    \nframe=   11 fps=0.2 q=50.0 size=       0KiB time=00:00:00.15 bitrate=   2.3kbits/s speed=0.00338x elapsed=0:00:44.36    \nframe=   12 fps=0.3 q=50.0 size=       0KiB time=00:00:00.16 bitrate=   2.1kbits/s speed=0.00371x elapsed=0:00:44.89    \nframe=   12 fps=0.3 q=50.0 size=       0KiB time=00:00:00.16 bitrate=   2.1kbits/s speed=0.00367x elapsed=0:00:45.44    \nframe=   13 fps=0.3 q=44.5 size=       0KiB time=00:00:00.18 bitrate=   1.9kbits/s speed=0.00399x elapsed=0:00:45.96    \nframe=   15 fps=0.3 q=50.0 size=       0KiB time=00:00:00.21 bitrate=   1.6kbits/s speed=0.00466x elapsed=0:00:46.48    \nframe=   15 fps=0.3 q=50.0 size=       0KiB time=00:00:00.21 bitrate=   1.6kbits/s speed=0.00461x elapsed=0:00:46.99    \nframe=   15 fps=0.3 q=50.0 size=       0KiB time=00:00:00.21 bitrate=   1.6kbits/s speed=0.00456x elapsed=0:00:47.51    \nframe=   16 fps=0.3 q=42.4 size=       0KiB time=00:00:00.23 bitrate=   1.5kbits/s speed=0.00486x elapsed=0:00:48.04    \nframe=   16 fps=0.3 q=42.4 size=       0KiB time=00:00:00.23 bitrate=   1.5kbits/s speed=0.0048x elapsed=0:00:48.58    \nframe=   16 fps=0.3 q=42.4 size=       0KiB time=00:00:00.23 bitrate=   1.5kbits/s speed=0.00475x elapsed=0:00:49.11    \nframe=   17 fps=0.3 q=47.8 size=       0KiB time=00:00:00.25 bitrate=   1.4kbits/s speed=0.00504x elapsed=0:00:49.64    \nframe=   18 fps=0.4 q=48.0 size=       0KiB time=00:00:00.26 bitrate=   1.3kbits/s speed=0.00531x elapsed=0:00:50.22    \nframe=   18 fps=0.4 q=48.0 size=       0KiB time=00:00:00.26 bitrate=   1.3kbits/s speed=0.00525x elapsed=0:00:50.77    \nframe=   18 fps=0.4 q=48.0 size=       0KiB time=00:00:00.26 bitrate=   1.3kbits/s speed=0.0052x elapsed=0:00:51.30    \nframe=   19 fps=0.4 q=47.0 size=       0KiB time=00:00:00.28 bitrate=   1.2kbits/s speed=0.00546x elapsed=0:00:51.85    \nframe=   20 fps=0.4 q=41.6 size=       0KiB time=00:00:00.30 bitrate=   1.2kbits/s speed=0.00573x elapsed=0:00:52.36    \nframe=   20 fps=0.4 q=41.6 size=       0KiB time=00:00:00.30 bitrate=   1.2kbits/s speed=0.00567x elapsed=0:00:52.89    \nframe=   21 fps=0.4 q=46.8 size=       0KiB time=00:00:00.31 bitrate=   1.1kbits/s speed=0.00593x elapsed=0:00:53.42    \nframe=   22 fps=0.4 q=47.0 size=       0KiB time=00:00:00.33 bitrate=   1.1kbits/s speed=0.00618x elapsed=0:00:53.94    \nframe=   23 fps=0.4 q=47.0 size=       0KiB time=00:00:00.35 bitrate=   1.0kbits/s speed=0.00642x elapsed=0:00:54.49    \nframe=   23 fps=0.4 q=47.0 size=       0KiB time=00:00:00.35 bitrate=   1.0kbits/s speed=0.00636x elapsed=0:00:55.04    \nframe=   24 fps=0.4 q=41.1 size=       0KiB time=00:00:00.36 bitrate=   1.0kbits/s speed=0.0066x elapsed=0:00:55.59    \nframe=   25 fps=0.4 q=46.9 size=       0KiB time=00:00:00.38 bitrate=   0.9kbits/s speed=0.00682x elapsed=0:00:56.17    \nframe=   25 fps=0.4 q=46.9 size=       0KiB time=00:00:00.38 bitrate=   0.9kbits/s speed=0.00676x elapsed=0:00:56.69    \nframe=   25 fps=0.4 q=46.9 size=       0KiB time=00:00:00.38 bitrate=   0.9kbits/s speed=0.0067x elapsed=0:00:57.24    \nframe=   25 fps=0.4 q=46.9 size=       0KiB time=00:00:00.38 bitrate=   0.9kbits/s speed=0.00663x elapsed=0:00:57.79    \nframe=   25 fps=0.4 q=46.9 size=       0KiB time=00:00:00.38 bitrate=   0.9kbits/s speed=0.00657x elapsed=0:00:58.32    \nframe=   26 fps=0.4 q=47.0 size=       0KiB time=00:00:00.40 bitrate=   0.9kbits/s speed=0.0068x elapsed=0:00:58.85    \nframe=   26 fps=0.4 q=47.0 size=       0KiB time=00:00:00.40 bitrate=   0.9kbits/s speed=0.00674x elapsed=0:00:59.38    \nframe=   26 fps=0.4 q=47.0 size=       0KiB time=00:00:00.40 bitrate=   0.9kbits/s speed=0.00667x elapsed=0:00:59.98    \nframe=   27 fps=0.4 q=46.0 size=       0KiB time=00:00:00.41 bitrate=   0.8kbits/s speed=0.00688x elapsed=0:01:00.56    \nframe=   28 fps=0.5 q=40.1 size=       0KiB time=00:00:00.43 bitrate=   0.8kbits/s speed=0.00708x elapsed=0:01:01.16    \nframe=   28 fps=0.5 q=40.1 size=       0KiB time=00:00:00.43 bitrate=   0.8kbits/s speed=0.00702x elapsed=0:01:01.70    \nframe=   28 fps=0.4 q=40.1 size=       0KiB time=00:00:00.43 bitrate=   0.8kbits/s speed=0.00696x elapsed=0:01:02.25    \nframe=   28 fps=0.4 q=40.1 size=       0KiB time=00:00:00.43 bitrate=   0.8kbits/s speed=0.0069x elapsed=0:01:02.84    \nframe=   29 fps=0.5 q=45.9 size=       0KiB time=00:00:00.45 bitrate=   0.8kbits/s speed=0.0071x elapsed=0:01:03.37    \nframe=   29 fps=0.5 q=45.9 size=       0KiB time=00:00:00.45 bitrate=   0.8kbits/s speed=0.00704x elapsed=0:01:03.92    \nframe=   30 fps=0.5 q=46.0 size=       0KiB time=00:00:00.46 bitrate=   0.8kbits/s speed=0.00723x elapsed=0:01:04.55    \nframe=   31 fps=0.5 q=40.2 size=       0KiB time=00:00:00.48 bitrate=   0.7kbits/s speed=0.00742x elapsed=0:01:05.10    \nframe=   31 fps=0.5 q=40.2 size=       0KiB time=00:00:00.48 bitrate=   0.7kbits/s speed=0.00736x elapsed=0:01:05.69    \nframe=   31 fps=0.5 q=40.2 size=       0KiB time=00:00:00.48 bitrate=   0.7kbits/s speed=0.0073x elapsed=0:01:06.24    \nframe=   31 fps=0.5 q=40.2 size=       0KiB time=00:00:00.48 bitrate=   0.7kbits/s speed=0.00724x elapsed=0:01:06.79    \nframe=   32 fps=0.5 q=45.9 size=       0KiB time=00:00:00.50 bitrate=   0.7kbits/s speed=0.00743x elapsed=0:01:07.33    \nframe=   32 fps=0.5 q=45.9 size=       0KiB time=00:00:00.50 bitrate=   0.7kbits/s speed=0.00736x elapsed=0:01:07.92    \nframe=   32 fps=0.5 q=45.9 size=       0KiB time=00:00:00.50 bitrate=   0.7kbits/s speed=0.0073x elapsed=0:01:08.46    \nframe=   32 fps=0.5 q=45.9 size=       0KiB time=00:00:00.50 bitrate=   0.7kbits/s speed=0.00725x elapsed=0:01:09.00    \nframe=   33 fps=0.5 q=46.0 size=       0KiB time=00:00:00.51 bitrate=   0.7kbits/s speed=0.00743x elapsed=0:01:09.54    \nframe=   33 fps=0.5 q=46.0 size=       0KiB time=00:00:00.51 bitrate=   0.7kbits/s speed=0.00737x elapsed=0:01:10.07    \nframe=   33 fps=0.5 q=46.0 size=       0KiB time=00:00:00.51 bitrate=   0.7kbits/s speed=0.00731x elapsed=0:01:10.64    \nframe=   33 fps=0.5 q=46.0 size=       0KiB time=00:00:00.51 bitrate=   0.7kbits/s speed=0.00726x elapsed=0:01:11.20    \nframe=   33 fps=0.5 q=46.0 size=       0KiB time=00:00:00.51 bitrate=   0.7kbits/s speed=0.0072x elapsed=0:01:11.77    \nframe=   34 fps=0.5 q=45.0 size=       0KiB time=00:00:00.53 bitrate=   0.7kbits/s speed=0.00737x elapsed=0:01:12.37    \nframe=   35 fps=0.5 q=38.7 size=       0KiB time=00:00:00.55 bitrate=   0.6kbits/s speed=0.00754x elapsed=0:01:12.91    \nframe=   37 fps=0.5 q=44.1 size=       0KiB time=00:00:00.58 bitrate=   0.6kbits/s speed=0.00793x elapsed=0:01:13.52    \nframe=   37 fps=0.5 q=44.1 size=       0KiB time=00:00:00.58 bitrate=   0.6kbits/s speed=0.00787x elapsed=0:01:14.14    \nframe=   37 fps=0.5 q=44.1 size=       0KiB time=00:00:00.58 bitrate=   0.6kbits/s speed=0.00781x elapsed=0:01:14.72    \nframe=   38 fps=0.5 q=44.9 size=       0KiB time=00:00:00.60 bitrate=   0.6kbits/s speed=0.00797x elapsed=0:01:15.27    \nframe=   38 fps=0.5 q=44.9 size=       0KiB time=00:00:00.60 bitrate=   0.6kbits/s speed=0.00792x elapsed=0:01:15.79    \nframe=   38 fps=0.5 q=44.9 size=       0KiB time=00:00:00.60 bitrate=   0.6kbits/s speed=0.00786x elapsed=0:01:16.34    \nframe=   38 fps=0.5 q=44.9 size=       0KiB time=00:00:00.60 bitrate=   0.6kbits/s speed=0.0078x elapsed=0:01:16.94    \nframe=   38 fps=0.5 q=44.9 size=       0KiB time=00:00:00.60 bitrate=   0.6kbits/s speed=0.00774x elapsed=0:01:17.50    \nframe=   39 fps=0.5 q=45.0 size=       0KiB time=00:00:00.61 bitrate=   0.6kbits/s speed=0.00789x elapsed=0:01:18.13    \nframe=   39 fps=0.5 q=45.0 size=       0KiB time=00:00:00.61 bitrate=   0.6kbits/s speed=0.00784x elapsed=0:01:18.69    \nframe=   39 fps=0.5 q=45.0 size=       0KiB time=00:00:00.61 bitrate=   0.6kbits/s speed=0.00777x elapsed=0:01:19.33    \nframe=   40 fps=0.5 q=38.6 size=       0KiB time=00:00:00.63 bitrate=   0.6kbits/s speed=0.00792x elapsed=0:01:19.92    \nframe=   41 fps=0.5 q=40.6 size=       0KiB time=00:00:00.65 bitrate=   0.5kbits/s speed=0.00808x elapsed=0:01:20.47    \nframe=   41 fps=0.5 q=40.6 size=       0KiB time=00:00:00.65 bitrate=   0.5kbits/s speed=0.00802x elapsed=0:01:21.07    \nframe=   41 fps=0.5 q=40.6 size=       0KiB time=00:00:00.65 bitrate=   0.5kbits/s speed=0.00796x elapsed=0:01:21.68    \nframe=   42 fps=0.5 q=45.0 size=       0KiB time=00:00:00.66 bitrate=   0.5kbits/s speed=0.0081x elapsed=0:01:22.27    \nframe=   42 fps=0.5 q=45.0 size=       0KiB time=00:00:00.66 bitrate=   0.5kbits/s speed=0.00805x elapsed=0:01:22.83    \nframe=   42 fps=0.5 q=45.0 size=       0KiB time=00:00:00.66 bitrate=   0.5kbits/s speed=0.008x elapsed=0:01:23.35    \nframe=   42 fps=0.5 q=45.0 size=       0KiB time=00:00:00.66 bitrate=   0.5kbits/s speed=0.00795x elapsed=0:01:23.90    \nframe=   42 fps=0.5 q=45.0 size=       0KiB time=00:00:00.66 bitrate=   0.5kbits/s speed=0.00789x elapsed=0:01:24.49    \nframe=   43 fps=0.5 q=44.0 size=       0KiB time=00:00:00.68 bitrate=   0.5kbits/s speed=0.00803x elapsed=0:01:25.04    \nframe=   43 fps=0.5 q=44.0 size=       0KiB time=00:00:00.68 bitrate=   0.5kbits/s speed=0.00798x elapsed=0:01:25.60    \nframe=   44 fps=0.5 q=45.0 size=       0KiB time=00:00:00.70 bitrate=   0.5kbits/s speed=0.00813x elapsed=0:01:26.12    \nframe=   44 fps=0.5 q=45.0 size=       0KiB time=00:00:00.70 bitrate=   0.5kbits/s speed=0.00806x elapsed=0:01:26.80    \nframe=   45 fps=0.5 q=38.5 size=       0KiB time=00:00:00.71 bitrate=   0.5kbits/s speed=0.0082x elapsed=0:01:27.36    \nframe=   45 fps=0.5 q=38.5 size=       0KiB time=00:00:00.71 bitrate=   0.5kbits/s speed=0.00815x elapsed=0:01:27.89    \nframe=   45 fps=0.5 q=38.5 size=       0KiB time=00:00:00.71 bitrate=   0.5kbits/s speed=0.0081x elapsed=0:01:28.42    \nframe=   45 fps=0.5 q=38.5 size=       0KiB time=00:00:00.71 bitrate=   0.5kbits/s speed=0.00805x elapsed=0:01:28.97    \nframe=   46 fps=0.5 q=41.0 size=       0KiB time=00:00:00.73 bitrate=   0.5kbits/s speed=0.00819x elapsed=0:01:29.54    \nframe=   46 fps=0.5 q=41.0 size=       0KiB time=00:00:00.73 bitrate=   0.5kbits/s speed=0.00814x elapsed=0:01:30.09    \nframe=   46 fps=0.5 q=41.0 size=       0KiB time=00:00:00.73 bitrate=   0.5kbits/s speed=0.00809x elapsed=0:01:30.66    \nframe=   47 fps=0.5 q=45.0 size=       0KiB time=00:00:00.75 bitrate=   0.5kbits/s speed=0.00822x elapsed=0:01:31.24    \nframe=   47 fps=0.5 q=45.0 size=       0KiB time=00:00:00.75 bitrate=   0.5kbits/s speed=0.00817x elapsed=0:01:31.84    \nframe=   48 fps=0.5 q=44.0 size=       0KiB time=00:00:00.76 bitrate=   0.5kbits/s speed=0.0083x elapsed=0:01:32.39    \nframe=   48 fps=0.5 q=44.0 size=       0KiB time=00:00:00.76 bitrate=   0.5kbits/s speed=0.00825x elapsed=0:01:32.98    \nframe=   48 fps=0.5 q=44.0 size=       0KiB time=00:00:00.76 bitrate=   0.5kbits/s speed=0.00819x elapsed=0:01:33.58    \nframe=   48 fps=0.5 q=44.0 size=       0KiB time=00:00:00.76 bitrate=   0.5kbits/s speed=0.00815x elapsed=0:01:34.09    \nframe=   48 fps=0.5 q=44.0 size=       0KiB time=00:00:00.76 bitrate=   0.5kbits/s speed=0.0081x elapsed=0:01:34.67    \nframe=   49 fps=0.5 q=44.0 size=       0KiB time=00:00:00.78 bitrate=   0.4kbits/s speed=0.00823x elapsed=0:01:35.21    \nframe=   49 fps=0.5 q=44.0 size=       0KiB time=00:00:00.78 bitrate=   0.4kbits/s speed=0.00818x elapsed=0:01:35.78    \nframe=   50 fps=0.5 q=38.0 size=       0KiB time=00:00:00.80 bitrate=   0.4kbits/s speed=0.0083x elapsed=0:01:36.35    \nframe=   50 fps=0.5 q=38.0 size=       0KiB time=00:00:00.80 bitrate=   0.4kbits/s speed=0.00826x elapsed=0:01:36.88    \nframe=   51 fps=0.5 q=42.0 size=       0KiB time=00:00:00.81 bitrate=   0.4kbits/s speed=0.00838x elapsed=0:01:37.42    \nframe=   51 fps=0.5 q=42.0 size=       0KiB time=00:00:00.81 bitrate=   0.4kbits/s speed=0.00833x elapsed=0:01:37.99    \nframe=   51 fps=0.5 q=42.0 size=       0KiB time=00:00:00.81 bitrate=   0.4kbits/s speed=0.00829x elapsed=0:01:38.53    \nframe=   52 fps=0.5 q=44.0 size=       0KiB time=00:00:00.83 bitrate=   0.4kbits/s speed=0.00841x elapsed=0:01:39.06    \nframe=   53 fps=0.5 q=43.9 size=       0KiB time=00:00:00.85 bitrate=   0.4kbits/s speed=0.00853x elapsed=0:01:39.61    \nframe=   54 fps=0.5 q=43.0 size=       0KiB time=00:00:00.86 bitrate=   0.4kbits/s speed=0.00865x elapsed=0:01:40.17    \nframe=   55 fps=0.5 q=37.9 size=       0KiB time=00:00:00.88 bitrate=   0.4kbits/s speed=0.00877x elapsed=0:01:40.70    \nframe=   56 fps=0.6 q=43.0 size=       0KiB time=00:00:00.90 bitrate=   0.4kbits/s speed=0.00889x elapsed=0:01:41.24    \nframe=   56 fps=0.6 q=43.0 size=       0KiB time=00:00:00.90 bitrate=   0.4kbits/s speed=0.00884x elapsed=0:01:41.77    \nframe=   56 fps=0.5 q=43.0 size=       0KiB time=00:00:00.90 bitrate=   0.4kbits/s speed=0.00879x elapsed=0:01:42.34    \nframe=   57 fps=0.6 q=44.0 size=       0KiB time=00:00:00.90 bitrate=   0.4kbits/s speed=0.00874x elapsed=0:01:42.91    \nframe=   57 fps=0.6 q=44.0 size=       0KiB time=00:00:00.91 bitrate=   0.4kbits/s speed=0.00886x elapsed=0:01:43.48    \nframe=   58 fps=0.6 q=43.0 size=       0KiB time=00:00:00.93 bitrate=   0.4kbits/s speed=0.00896x elapsed=0:01:44.18    \nframe=   58 fps=0.6 q=43.0 size=       0KiB time=00:00:00.93 bitrate=   0.4kbits/s speed=0.00891x elapsed=0:01:44.75    \nframe=   58 fps=0.6 q=43.0 size=       0KiB time=00:00:00.93 bitrate=   0.4kbits/s speed=0.00885x elapsed=0:01:45.42    \nframe=   59 fps=0.6 q=43.1 size=       0KiB time=00:00:00.95 bitrate=   0.4kbits/s speed=0.00896x elapsed=0:01:45.97    \nframe=   60 fps=0.6 q=37.2 size=       0KiB time=00:00:00.96 bitrate=   0.4kbits/s speed=0.00907x elapsed=0:01:46.57    \nframe=   61 fps=0.6 q=42.9 size=       0KiB time=00:00:00.98 bitrate=   0.4kbits/s speed=0.00917x elapsed=0:01:47.18    \nframe=   61 fps=0.6 q=42.9 size=       0KiB time=00:00:00.98 bitrate=   0.4kbits/s speed=0.00913x elapsed=0:01:47.74    \nframe=   61 fps=0.6 q=42.9 size=       0KiB time=00:00:00.98 bitrate=   0.4kbits/s speed=0.00908x elapsed=0:01:48.28    \nframe=   62 fps=0.6 q=43.0 size=       0KiB time=00:00:01.00 bitrate=   0.4kbits/s speed=0.00918x elapsed=0:01:48.87    \nframe=   62 fps=0.6 q=43.0 size=       0KiB time=00:00:01.00 bitrate=   0.4kbits/s speed=0.00913x elapsed=0:01:49.48    \nframe=   62 fps=0.6 q=43.0 size=       0KiB time=00:00:01.00 bitrate=   0.4kbits/s speed=0.00908x elapsed=0:01:50.13    \nframe=   62 fps=0.6 q=43.0 size=       0KiB time=00:00:01.00 bitrate=   0.4kbits/s speed=0.00903x elapsed=0:01:50.71    \nframe=   63 fps=0.6 q=44.0 size=       0KiB time=00:00:01.01 bitrate=   0.3kbits/s speed=0.00914x elapsed=0:01:51.24    \nframe=   63 fps=0.6 q=44.0 size=       0KiB time=00:00:01.01 bitrate=   0.3kbits/s speed=0.00909x elapsed=0:01:51.80    \nframe=   64 fps=0.6 q=37.3 size=       0KiB time=00:00:01.03 bitrate=   0.3kbits/s speed=0.00919x elapsed=0:01:52.39    \nframe=   64 fps=0.6 q=37.3 size=       0KiB time=00:00:01.03 bitrate=   0.3kbits/s speed=0.00915x elapsed=0:01:52.93    \nframe=   64 fps=0.6 q=37.3 size=       0KiB time=00:00:01.03 bitrate=   0.3kbits/s speed=0.00911x elapsed=0:01:53.46    \nframe=   64 fps=0.6 q=37.3 size=       0KiB time=00:00:01.03 bitrate=   0.3kbits/s speed=0.00906x elapsed=0:01:54.01    \nframe=   65 fps=0.6 q=42.5 size=       0KiB time=00:00:01.05 bitrate=   0.3kbits/s speed=0.00917x elapsed=0:01:54.56    \nframe=   66 fps=0.6 q=43.1 size=       0KiB time=00:00:01.06 bitrate=   0.3kbits/s speed=0.00927x elapsed=0:01:55.08    \nframe=   66 fps=0.6 q=43.1 size=       0KiB time=00:00:01.06 bitrate=   0.3kbits/s speed=0.00923x elapsed=0:01:55.60    \nframe=   66 fps=0.6 q=43.1 size=       0KiB time=00:00:01.06 bitrate=   0.3kbits/s speed=0.00919x elapsed=0:01:56.12    \nframe=   67 fps=0.6 q=43.0 size=       0KiB time=00:00:01.08 bitrate=   0.3kbits/s speed=0.00929x elapsed=0:01:56.63    \nframe=   68 fps=0.6 q=43.0 size=       0KiB time=00:00:01.10 bitrate=   0.3kbits/s speed=0.00939x elapsed=0:01:57.15    \nframe=   68 fps=0.6 q=43.0 size=       0KiB time=00:00:01.10 bitrate=   0.3kbits/s speed=0.00935x elapsed=0:01:57.68    \nframe=   69 fps=0.6 q=36.7 size=       0KiB time=00:00:01.11 bitrate=   0.3kbits/s speed=0.00945x elapsed=0:01:58.21    \nframe=   70 fps=0.6 q=41.3 size=       0KiB time=00:00:01.13 bitrate=   0.3kbits/s speed=0.00954x elapsed=0:01:58.73    \nframe=   70 fps=0.6 q=41.3 size=       0KiB time=00:00:01.13 bitrate=   0.3kbits/s speed=0.0095x elapsed=0:01:59.28    \nframe=   71 fps=0.6 q=43.0 size=       0KiB time=00:00:01.15 bitrate=   0.3kbits/s speed=0.0096x elapsed=0:01:59.79    \nframe=   72 fps=0.6 q=43.0 size=       0KiB time=00:00:01.16 bitrate=   0.3kbits/s speed=0.0097x elapsed=0:02:00.30    \nframe=   72 fps=0.6 q=43.0 size=       0KiB time=00:00:01.16 bitrate=   0.3kbits/s speed=0.00966x elapsed=0:02:00.82    \nframe=   73 fps=0.6 q=42.1 size=       0KiB time=00:00:01.18 bitrate=   0.3kbits/s speed=0.00975x elapsed=0:02:01.35    \nframe=   74 fps=0.6 q=36.5 size=       0KiB time=00:00:01.20 bitrate=   0.3kbits/s speed=0.00985x elapsed=0:02:01.86    \nframe=   75 fps=0.6 q=38.8 size=       0KiB time=00:00:01.21 bitrate=   0.3kbits/s speed=0.00994x elapsed=0:02:02.38    \nframe=   76 fps=0.6 q=43.0 size=       0KiB time=00:00:01.23 bitrate=   0.3kbits/s speed=0.01x elapsed=0:02:02.90    \nframe=   76 fps=0.6 q=43.0 size=       0KiB time=00:00:01.23 bitrate=   0.3kbits/s speed=0.00999x elapsed=0:02:03.41    \nframe=   77 fps=0.6 q=42.9 size=       0KiB time=00:00:01.25 bitrate=   0.3kbits/s speed=0.0101x elapsed=0:02:03.93    \nframe=   77 fps=0.6 q=42.9 size=       0KiB time=00:00:01.25 bitrate=   0.3kbits/s speed=0.01x elapsed=0:02:04.46    \nframe=   78 fps=0.6 q=42.9 size=       0KiB time=00:00:01.26 bitrate=   0.3kbits/s speed=0.0101x elapsed=0:02:04.99    \nframe=   78 fps=0.6 q=42.9 size=       0KiB time=00:00:01.26 bitrate=   0.3kbits/s speed=0.0101x elapsed=0:02:05.51    \nframe=   79 fps=0.6 q=36.8 size=       0KiB time=00:00:01.28 bitrate=   0.3kbits/s speed=0.0102x elapsed=0:02:06.03    \nframe=   80 fps=0.6 q=42.0 size=       0KiB time=00:00:01.30 bitrate=   0.3kbits/s speed=0.0103x elapsed=0:02:06.55    \nframe=   81 fps=0.6 q=42.9 size=       0KiB time=00:00:01.31 bitrate=   0.3kbits/s speed=0.0104x elapsed=0:02:07.07    \nframe=   81 fps=0.6 q=42.9 size=       0KiB time=00:00:01.31 bitrate=   0.3kbits/s speed=0.0103x elapsed=0:02:07.58    \nframe=   82 fps=0.6 q=42.9 size=       0KiB time=00:00:01.33 bitrate=   0.3kbits/s speed=0.0104x elapsed=0:02:08.10    \nframe=   83 fps=0.6 q=42.9 size=       0KiB time=00:00:01.35 bitrate=   0.3kbits/s speed=0.0105x elapsed=0:02:08.62    \nframe=   83 fps=0.6 q=42.9 size=       0KiB time=00:00:01.35 bitrate=   0.3kbits/s speed=0.0105x elapsed=0:02:09.15    \nframe=   84 fps=0.6 q=36.3 size=       0KiB time=00:00:01.36 bitrate=   0.3kbits/s speed=0.0105x elapsed=0:02:09.66    \nframe=   85 fps=0.7 q=41.8 size=       0KiB time=00:00:01.38 bitrate=   0.3kbits/s speed=0.0106x elapsed=0:02:10.18    \nframe=   86 fps=0.7 q=42.9 size=       0KiB time=00:00:01.40 bitrate=   0.3kbits/s speed=0.0107x elapsed=0:02:10.71    \nframe=   86 fps=0.7 q=42.9 size=       0KiB time=00:00:01.40 bitrate=   0.3kbits/s speed=0.0107x elapsed=0:02:11.24    \nframe=   87 fps=0.7 q=42.9 size=       0KiB time=00:00:01.41 bitrate=   0.2kbits/s speed=0.0108x elapsed=0:02:11.76    \nframe=   88 fps=0.7 q=42.9 size=       0KiB time=00:00:01.43 bitrate=   0.2kbits/s speed=0.0108x elapsed=0:02:12.29    \nframe=   89 fps=0.7 q=36.2 size=       0KiB time=00:00:01.45 bitrate=   0.2kbits/s speed=0.0109x elapsed=0:02:12.80    \nframe=   90 fps=0.7 q=41.0 size=       0KiB time=00:00:01.46 bitrate=   0.2kbits/s speed=0.011x elapsed=0:02:13.33    \nframe=   90 fps=0.7 q=41.0 size=       0KiB time=00:00:01.46 bitrate=   0.2kbits/s speed=0.011x elapsed=0:02:13.87    \nframe=   91 fps=0.7 q=42.0 size=       0KiB time=00:00:01.48 bitrate=   0.2kbits/s speed=0.011x elapsed=0:02:14.39    \nframe=   91 fps=0.7 q=42.0 size=       0KiB time=00:00:01.48 bitrate=   0.2kbits/s speed=0.011x elapsed=0:02:14.90    \nframe=   92 fps=0.7 q=42.0 size=       0KiB time=00:00:01.50 bitrate=   0.2kbits/s speed=0.0111x elapsed=0:02:15.44    \nframe=   92 fps=0.7 q=42.0 size=       0KiB time=00:00:01.50 bitrate=   0.2kbits/s speed=0.011x elapsed=0:02:15.95    \nframe=   93 fps=0.7 q=42.0 size=       0KiB time=00:00:01.51 bitrate=   0.2kbits/s speed=0.0111x elapsed=0:02:16.47    \nframe=   93 fps=0.7 q=42.0 size=       0KiB time=00:00:01.51 bitrate=   0.2kbits/s speed=0.0111x elapsed=0:02:17.01    \nframe=   94 fps=0.7 q=36.2 size=       0KiB time=00:00:01.53 bitrate=   0.2kbits/s speed=0.0111x elapsed=0:02:17.55    \nframe=   95 fps=0.7 q=41.0 size=     256KiB time=00:00:01.55 bitrate=1353.2kbits/s speed=0.0112x elapsed=0:02:18.06    \nframe=   95 fps=0.7 q=41.0 size=     256KiB time=00:00:01.55 bitrate=1353.2kbits/s speed=0.0112x elapsed=0:02:18.57    \nframe=   96 fps=0.7 q=42.0 size=     256KiB time=00:00:01.56 bitrate=1338.8kbits/s speed=0.0113x elapsed=0:02:19.09    \nframe=   96 fps=0.7 q=42.0 size=     256KiB time=00:00:01.56 bitrate=1338.8kbits/s speed=0.0112x elapsed=0:02:19.61    \nframe=   96 fps=0.7 q=42.0 size=     256KiB time=00:00:01.56 bitrate=1338.8kbits/s speed=0.0112x elapsed=0:02:20.12    \nframe=   97 fps=0.7 q=42.0 size=     256KiB time=00:00:01.58 bitrate=1324.7kbits/s speed=0.0113x elapsed=0:02:20.65    \nframe=   97 fps=0.7 q=42.0 size=     256KiB time=00:00:01.58 bitrate=1324.7kbits/s speed=0.0112x elapsed=0:02:21.20    \nframe=   98 fps=0.7 q=42.0 size=     256KiB time=00:00:01.60 bitrate=1310.9kbits/s speed=0.0113x elapsed=0:02:21.73    \nframe=   99 fps=0.7 q=36.7 size=     256KiB time=00:00:01.61 bitrate=1297.4kbits/s speed=0.0114x elapsed=0:02:22.25    \nframe=  100 fps=0.7 q=40.9 size=     256KiB time=00:00:01.63 bitrate=1284.2kbits/s speed=0.0114x elapsed=0:02:22.76    \nframe=  101 fps=0.7 q=41.9 size=     256KiB time=00:00:01.65 bitrate=1271.2kbits/s speed=0.0115x elapsed=0:02:23.28    \nframe=  101 fps=0.7 q=41.9 size=     256KiB time=00:00:01.65 bitrate=1271.2kbits/s speed=0.0115x elapsed=0:02:23.81    \nframe=  101 fps=0.7 q=41.9 size=     256KiB time=00:00:01.65 bitrate=1271.2kbits/s speed=0.0114x elapsed=0:02:24.33    \nframe=  102 fps=0.7 q=41.9 size=     256KiB time=00:00:01.66 bitrate=1258.5kbits/s speed=0.0115x elapsed=0:02:24.86    \nframe=  103 fps=0.7 q=42.0 size=     256KiB time=00:00:01.68 bitrate=1246.0kbits/s speed=0.0116x elapsed=0:02:25.41    \nframe=  103 fps=0.7 q=42.0 size=     256KiB time=00:00:01.68 bitrate=1246.0kbits/s speed=0.0115x elapsed=0:02:25.92    \nframe=  104 fps=0.7 q=36.6 size=     256KiB time=00:00:01.70 bitrate=1233.8kbits/s speed=0.0116x elapsed=0:02:26.46    \nframe=  105 fps=0.7 q=41.1 size=     256KiB time=00:00:01.71 bitrate=1221.8kbits/s speed=0.0117x elapsed=0:02:26.98    \nframe=  105 fps=0.7 q=41.1 size=     256KiB time=00:00:01.71 bitrate=1221.8kbits/s speed=0.0116x elapsed=0:02:27.50    \nframe=  106 fps=0.7 q=42.9 size=     256KiB time=00:00:01.73 bitrate=1210.1kbits/s speed=0.0117x elapsed=0:02:28.04    \nframe=  106 fps=0.7 q=42.9 size=     256KiB time=00:00:01.73 bitrate=1210.1kbits/s speed=0.0117x elapsed=0:02:28.57    \nframe=  107 fps=0.7 q=42.9 size=     256KiB time=00:00:01.73 bitrate=1210.1kbits/s speed=0.0116x elapsed=0:02:29.08    \nframe=  107 fps=0.7 q=42.9 size=     256KiB time=00:00:01.75 bitrate=1198.6kbits/s speed=0.0117x elapsed=0:02:29.65    \nframe=  107 fps=0.7 q=42.9 size=     256KiB time=00:00:01.75 bitrate=1198.6kbits/s speed=0.0117x elapsed=0:02:30.20    \nframe=  107 fps=0.7 q=42.9 size=     256KiB time=00:00:01.75 bitrate=1198.6kbits/s speed=0.0116x elapsed=0:02:30.74    \nframe=  108 fps=0.7 q=36.6 size=     256KiB time=00:00:01.76 bitrate=1187.3kbits/s speed=0.0117x elapsed=0:02:31.26    \nframe=  108 fps=0.7 q=36.6 size=     256KiB time=00:00:01.76 bitrate=1187.3kbits/s speed=0.0116x elapsed=0:02:31.77    \nframe=  108 fps=0.7 q=36.6 size=     256KiB time=00:00:01.76 bitrate=1187.3kbits/s speed=0.0116x elapsed=0:02:32.30    \nframe=  109 fps=0.7 q=40.9 size=     256KiB time=00:00:01.78 bitrate=1176.2kbits/s speed=0.0117x elapsed=0:02:32.82    \nframe=  109 fps=0.7 q=40.9 size=     256KiB time=00:00:01.78 bitrate=1176.2kbits/s speed=0.0116x elapsed=0:02:33.35    \nframe=  110 fps=0.7 q=42.8 size=     256KiB time=00:00:01.80 bitrate=1165.3kbits/s speed=0.0117x elapsed=0:02:33.87    \nframe=  110 fps=0.7 q=42.8 size=     256KiB time=00:00:01.80 bitrate=1165.3kbits/s speed=0.0117x elapsed=0:02:34.41    \nframe=  111 fps=0.7 q=42.8 size=     256KiB time=00:00:01.81 bitrate=1154.6kbits/s speed=0.0117x elapsed=0:02:34.94    \nframe=  111 fps=0.7 q=42.8 size=     256KiB time=00:00:01.81 bitrate=1154.6kbits/s speed=0.0117x elapsed=0:02:35.49    \nframe=  112 fps=0.7 q=42.9 size=     256KiB time=00:00:01.83 bitrate=1144.1kbits/s speed=0.0118x elapsed=0:02:36.02    \nframe=  113 fps=0.7 q=36.5 size=     256KiB time=00:00:01.85 bitrate=1133.8kbits/s speed=0.0118x elapsed=0:02:36.55    \nframe=  114 fps=0.7 q=37.7 size=     256KiB time=00:00:01.86 bitrate=1123.7kbits/s speed=0.0119x elapsed=0:02:37.05    \nframe=  114 fps=0.7 q=37.7 size=     256KiB time=00:00:01.86 bitrate=1123.7kbits/s speed=0.0118x elapsed=0:02:37.57    \nframe=  115 fps=0.7 q=43.0 size=     256KiB time=00:00:01.88 bitrate=1113.7kbits/s speed=0.0119x elapsed=0:02:38.09    \nframe=  115 fps=0.7 q=43.0 size=     256KiB time=00:00:01.88 bitrate=1113.7kbits/s speed=0.0119x elapsed=0:02:38.60    \nframe=  115 fps=0.7 q=43.0 size=     256KiB time=00:00:01.88 bitrate=1113.7kbits/s speed=0.0118x elapsed=0:02:39.12    \nframe=  116 fps=0.7 q=42.0 size=     256KiB time=00:00:01.90 bitrate=1103.9kbits/s speed=0.0119x elapsed=0:02:39.64    \nframe=  117 fps=0.7 q=42.9 size=     256KiB time=00:00:01.91 bitrate=1094.3kbits/s speed=0.012x elapsed=0:02:40.15    \nframe=  117 fps=0.7 q=42.9 size=     256KiB time=00:00:01.91 bitrate=1094.3kbits/s speed=0.0119x elapsed=0:02:40.67    \nframe=  120 fps=0.7 q=43.0 size=     256KiB time=00:00:01.96 bitrate=1066.5kbits/s speed=0.0122x elapsed=0:02:41.19    \nframe=  121 fps=0.7 q=43.0 size=     256KiB time=00:00:01.98 bitrate=1057.6kbits/s speed=0.0123x elapsed=0:02:41.72    \nframe=  121 fps=0.7 q=43.0 size=     256KiB time=00:00:01.98 bitrate=1057.6kbits/s speed=0.0122x elapsed=0:02:42.25    \nframe=  122 fps=0.7 q=43.0 size=     256KiB time=00:00:02.00 bitrate=1048.8kbits/s speed=0.0123x elapsed=0:02:42.78    \nframe=  122 fps=0.7 q=43.0 size=     256KiB time=00:00:02.00 bitrate=1048.8kbits/s speed=0.0122x elapsed=0:02:43.31    \nframe=  123 fps=0.8 q=36.6 size=     256KiB time=00:00:02.01 bitrate=1040.1kbits/s speed=0.0123x elapsed=0:02:43.83    \nframe=  123 fps=0.7 q=36.6 size=     256KiB time=00:00:02.01 bitrate=1040.1kbits/s speed=0.0123x elapsed=0:02:44.35    \nframe=  123 fps=0.7 q=36.6 size=     256KiB time=00:00:02.01 bitrate=1040.1kbits/s speed=0.0122x elapsed=0:02:44.88    \nframe=  125 fps=0.8 q=42.9 size=     256KiB time=00:00:02.05 bitrate=1023.2kbits/s speed=0.0124x elapsed=0:02:45.41    \nframe=  125 fps=0.8 q=42.9 size=     256KiB time=00:00:02.05 bitrate=1023.2kbits/s speed=0.0124x elapsed=0:02:45.93    \nframe=  126 fps=0.8 q=42.8 size=     256KiB time=00:00:02.06 bitrate=1014.9kbits/s speed=0.0124x elapsed=0:02:46.46    \nframe=  127 fps=0.8 q=42.9 size=     256KiB time=00:00:02.08 bitrate=1006.8kbits/s speed=0.0125x elapsed=0:02:46.99    \nframe=  127 fps=0.8 q=42.9 size=     256KiB time=00:00:02.08 bitrate=1006.8kbits/s speed=0.0124x elapsed=0:02:47.53    \nframe=  128 fps=0.8 q=36.4 size=     256KiB time=00:00:02.10 bitrate= 998.8kbits/s speed=0.0125x elapsed=0:02:48.06    \nframe=  128 fps=0.8 q=36.4 size=     256KiB time=00:00:02.10 bitrate= 998.8kbits/s speed=0.0125x elapsed=0:02:48.57    \nframe=  129 fps=0.8 q=41.0 size=     256KiB time=00:00:02.11 bitrate= 990.9kbits/s speed=0.0125x elapsed=0:02:49.10    \nframe=  129 fps=0.8 q=41.0 size=     256KiB time=00:00:02.11 bitrate= 990.9kbits/s speed=0.0125x elapsed=0:02:49.61    \nframe=  131 fps=0.8 q=42.9 size=     256KiB time=00:00:02.15 bitrate= 975.6kbits/s speed=0.0126x elapsed=0:02:50.14    \nframe=  131 fps=0.8 q=42.9 size=     256KiB time=00:00:02.15 bitrate= 975.6kbits/s speed=0.0126x elapsed=0:02:50.67    \nframe=  133 fps=0.8 q=39.4 size=     256KiB time=00:00:02.18 bitrate= 960.7kbits/s speed=0.0128x elapsed=0:02:51.18    \nframe=  134 fps=0.8 q=41.9 size=     256KiB time=00:00:02.20 bitrate= 953.4kbits/s speed=0.0128x elapsed=0:02:51.71    \nframe=  135 fps=0.8 q=41.8 size=     256KiB time=00:00:02.21 bitrate= 946.2kbits/s speed=0.0129x elapsed=0:02:52.23    \nframe=  135 fps=0.8 q=41.8 size=     256KiB time=00:00:02.21 bitrate= 946.2kbits/s speed=0.0128x elapsed=0:02:52.77    \nframe=  136 fps=0.8 q=42.0 size=     256KiB time=00:00:02.23 bitrate= 939.2kbits/s speed=0.0129x elapsed=0:02:53.27    \nframe=  136 fps=0.8 q=42.0 size=     256KiB time=00:00:02.23 bitrate= 939.2kbits/s speed=0.0128x elapsed=0:02:53.80    \nframe=  137 fps=0.8 q=36.0 size=     256KiB time=00:00:02.25 bitrate= 932.2kbits/s speed=0.0129x elapsed=0:02:54.30    \nframe=  138 fps=0.8 q=36.7 size=     256KiB time=00:00:02.26 bitrate= 925.4kbits/s speed=0.013x elapsed=0:02:54.82    \nframe=  140 fps=0.8 q=41.9 size=     256KiB time=00:00:02.30 bitrate= 912.0kbits/s speed=0.0131x elapsed=0:02:55.35    \nframe=  141 fps=0.8 q=42.1 size=     256KiB time=00:00:02.31 bitrate= 905.4kbits/s speed=0.0132x elapsed=0:02:55.87    \nframe=  141 fps=0.8 q=42.1 size=     256KiB time=00:00:02.31 bitrate= 905.4kbits/s speed=0.0131x elapsed=0:02:56.38    \nframe=  142 fps=0.8 q=36.4 size=     256KiB time=00:00:02.33 bitrate= 898.9kbits/s speed=0.0132x elapsed=0:02:56.90    \nframe=  143 fps=0.8 q=38.2 size=     256KiB time=00:00:02.35 bitrate= 892.6kbits/s speed=0.0132x elapsed=0:02:57.42    \nframe=  144 fps=0.8 q=42.0 size=     256KiB time=00:00:02.36 bitrate= 886.3kbits/s speed=0.0133x elapsed=0:02:57.93    \nframe=  144 fps=0.8 q=42.0 size=     256KiB time=00:00:02.36 bitrate= 886.3kbits/s speed=0.0133x elapsed=0:02:58.44    \nframe=  144 fps=0.8 q=42.0 size=     256KiB time=00:00:02.36 bitrate= 886.3kbits/s speed=0.0132x elapsed=0:02:58.96    \nframe=  144 fps=0.8 q=42.0 size=     256KiB time=00:00:02.36 bitrate= 886.3kbits/s speed=0.0132x elapsed=0:02:59.50    \nframe=  146 fps=0.8 q=42.0 size=     256KiB time=00:00:02.38 bitrate= 880.1kbits/s speed=0.0132x elapsed=0:03:00.03    \nframe=  147 fps=0.8 q=36.5 size=     256KiB time=00:00:02.41 bitrate= 867.9kbits/s speed=0.0134x elapsed=0:03:00.56    \nframe=  147 fps=0.8 q=36.5 size=     256KiB time=00:00:02.41 bitrate= 867.9kbits/s speed=0.0133x elapsed=0:03:01.08    \nframe=  148 fps=0.8 q=41.1 size=     256KiB time=00:00:02.43 bitrate= 862.0kbits/s speed=0.0134x elapsed=0:03:01.59    \nframe=  149 fps=0.8 q=42.9 size=     256KiB time=00:00:02.45 bitrate= 856.1kbits/s speed=0.0135x elapsed=0:03:02.10    \nframe=  151 fps=0.8 q=35.4 size=     256KiB time=00:00:02.48 bitrate= 844.6kbits/s speed=0.0136x elapsed=0:03:02.61    \nframe=  151 fps=0.8 q=35.4 size=     256KiB time=00:00:02.48 bitrate= 844.6kbits/s speed=0.0136x elapsed=0:03:03.13    \nframe=  151 fps=0.8 q=35.4 size=     256KiB time=00:00:02.48 bitrate= 844.6kbits/s speed=0.0135x elapsed=0:03:03.65    \nframe=  152 fps=0.8 q=38.9 size=     256KiB time=00:00:02.50 bitrate= 839.0kbits/s speed=0.0136x elapsed=0:03:04.20    \nframe=  152 fps=0.8 q=38.9 size=     256KiB time=00:00:02.50 bitrate= 839.0kbits/s speed=0.0135x elapsed=0:03:04.73    \nframe=  153 fps=0.8 q=41.1 size=     256KiB time=00:00:02.51 bitrate= 833.4kbits/s speed=0.0136x elapsed=0:03:05.24    \nframe=  155 fps=0.8 q=41.0 size=     256KiB time=00:00:02.55 bitrate= 822.6kbits/s speed=0.0137x elapsed=0:03:05.76    \nframe=  155 fps=0.8 q=41.0 size=     256KiB time=00:00:02.55 bitrate= 822.6kbits/s speed=0.0137x elapsed=0:03:06.28    \nframe=  155 fps=0.8 q=41.0 size=     256KiB time=00:00:02.55 bitrate= 822.6kbits/s speed=0.0136x elapsed=0:03:06.81    \nframe=  157 fps=0.8 q=39.3 size=     256KiB time=00:00:02.56 bitrate= 817.2kbits/s speed=0.0137x elapsed=0:03:07.34    \nframe=  158 fps=0.8 q=41.0 size=     256KiB time=00:00:02.60 bitrate= 806.7kbits/s speed=0.0138x elapsed=0:03:07.86    \nframe=  158 fps=0.8 q=41.0 size=     256KiB time=00:00:02.60 bitrate= 806.7kbits/s speed=0.0138x elapsed=0:03:08.39    \nframe=  158 fps=0.8 q=41.0 size=     256KiB time=00:00:02.60 bitrate= 806.7kbits/s speed=0.0138x elapsed=0:03:08.92    \nframe=  159 fps=0.8 q=40.8 size=     256KiB time=00:00:02.61 bitrate= 801.6kbits/s speed=0.0138x elapsed=0:03:09.46    \nframe=  160 fps=0.8 q=41.0 size=     256KiB time=00:00:02.63 bitrate= 796.5kbits/s speed=0.0139x elapsed=0:03:10.00    \nframe=  161 fps=0.8 q=35.9 size=     256KiB time=00:00:02.65 bitrate= 791.5kbits/s speed=0.0139x elapsed=0:03:10.52    \nframe=  162 fps=0.8 q=39.5 size=     256KiB time=00:00:02.66 bitrate= 786.6kbits/s speed=0.014x elapsed=0:03:11.07    \nframe=  162 fps=0.8 q=39.5 size=     256KiB time=00:00:02.66 bitrate= 786.6kbits/s speed=0.0139x elapsed=0:03:11.58    \nframe=  163 fps=0.8 q=41.8 size=     256KiB time=00:00:02.68 bitrate= 781.7kbits/s speed=0.014x elapsed=0:03:12.11    \nframe=  163 fps=0.8 q=41.8 size=     256KiB time=00:00:02.68 bitrate= 781.7kbits/s speed=0.0139x elapsed=0:03:12.65    \nframe=  164 fps=0.8 q=40.9 size=     256KiB time=00:00:02.70 bitrate= 776.9kbits/s speed=0.014x elapsed=0:03:13.20    \nframe=  164 fps=0.8 q=40.9 size=     256KiB time=00:00:02.70 bitrate= 776.9kbits/s speed=0.0139x elapsed=0:03:13.72    \nframe=  164 fps=0.8 q=40.9 size=     256KiB time=00:00:02.70 bitrate= 776.9kbits/s speed=0.0139x elapsed=0:03:14.25    \nframe=  165 fps=0.8 q=40.9 size=     256KiB time=00:00:02.71 bitrate= 772.1kbits/s speed=0.0139x elapsed=0:03:14.78    \nframe=  167 fps=0.9 q=39.4 size=     256KiB time=00:00:02.75 bitrate= 762.7kbits/s speed=0.0141x elapsed=0:03:15.29    \nframe=  167 fps=0.9 q=39.4 size=     256KiB time=00:00:02.75 bitrate= 762.7kbits/s speed=0.014x elapsed=0:03:15.80    \nframe=  169 fps=0.9 q=40.9 size=     256KiB time=00:00:02.78 bitrate= 753.6kbits/s speed=0.0142x elapsed=0:03:16.33    \nframe=  169 fps=0.9 q=40.9 size=     256KiB time=00:00:02.78 bitrate= 753.6kbits/s speed=0.0141x elapsed=0:03:16.85    \nframe=  169 fps=0.9 q=40.9 size=     256KiB time=00:00:02.78 bitrate= 753.6kbits/s speed=0.0141x elapsed=0:03:17.37    \nframe=  171 fps=0.9 q=38.2 size=     256KiB time=00:00:02.81 bitrate= 744.7kbits/s speed=0.0142x elapsed=0:03:17.88    \nframe=  172 fps=0.9 q=39.9 size=     256KiB time=00:00:02.83 bitrate= 740.3kbits/s speed=0.0143x elapsed=0:03:18.40    \nframe=  172 fps=0.9 q=39.9 size=     256KiB time=00:00:02.83 bitrate= 740.3kbits/s speed=0.0142x elapsed=0:03:18.91    \nframe=  173 fps=0.9 q=39.8 size=     256KiB time=00:00:02.85 bitrate= 736.0kbits/s speed=0.0143x elapsed=0:03:19.46    \nframe=  173 fps=0.9 q=39.8 size=     256KiB time=00:00:02.85 bitrate= 736.0kbits/s speed=0.0142x elapsed=0:03:20.00    \nframe=  173 fps=0.9 q=39.8 size=     256KiB time=00:00:02.85 bitrate= 736.0kbits/s speed=0.0142x elapsed=0:03:20.51    \nframe=  174 fps=0.9 q=40.9 size=     256KiB time=00:00:02.86 bitrate= 731.7kbits/s speed=0.0143x elapsed=0:03:21.04    \nframe=  175 fps=0.9 q=35.8 size=     256KiB time=00:00:02.88 bitrate= 727.5kbits/s speed=0.0143x elapsed=0:03:21.55    \nframe=  176 fps=0.9 q=37.8 size=     256KiB time=00:00:02.90 bitrate= 723.3kbits/s speed=0.0144x elapsed=0:03:22.07    \nframe=  176 fps=0.9 q=37.8 size=     256KiB time=00:00:02.90 bitrate= 723.3kbits/s speed=0.0143x elapsed=0:03:22.59    \nframe=  176 fps=0.9 q=37.8 size=     256KiB time=00:00:02.90 bitrate= 723.3kbits/s speed=0.0143x elapsed=0:03:23.10    \nframe=  177 fps=0.9 q=40.9 size=     256KiB time=00:00:02.91 bitrate= 719.1kbits/s speed=0.0143x elapsed=0:03:23.62    \nframe=  177 fps=0.9 q=40.9 size=     256KiB time=00:00:02.91 bitrate= 719.1kbits/s speed=0.0143x elapsed=0:03:24.14    \nframe=  177 fps=0.9 q=40.9 size=     256KiB time=00:00:02.91 bitrate= 719.1kbits/s speed=0.0143x elapsed=0:03:24.67    \nframe=  178 fps=0.9 q=40.8 size=     512KiB time=00:00:02.93 bitrate=1430.0kbits/s speed=0.0143x elapsed=0:03:25.20    \nframe=  179 fps=0.9 q=40.8 size=     512KiB time=00:00:02.95 bitrate=1421.9kbits/s speed=0.0143x elapsed=0:03:25.74    \nframe=  180 fps=0.9 q=35.9 size=     512KiB time=00:00:02.96 bitrate=1413.9kbits/s speed=0.0144x elapsed=0:03:26.29    \nframe=  180 fps=0.9 q=35.9 size=     512KiB time=00:00:02.96 bitrate=1413.9kbits/s speed=0.0143x elapsed=0:03:26.83    \nframe=  180 fps=0.9 q=35.9 size=     512KiB time=00:00:02.96 bitrate=1413.9kbits/s speed=0.0143x elapsed=0:03:27.37    \nframe=  181 fps=0.9 q=39.8 size=     512KiB time=00:00:02.98 bitrate=1406.0kbits/s speed=0.0144x elapsed=0:03:27.89    \nframe=  182 fps=0.9 q=41.6 size=     512KiB time=00:00:03.00 bitrate=1398.2kbits/s speed=0.0144x elapsed=0:03:28.42    \nframe=  182 fps=0.9 q=41.6 size=     512KiB time=00:00:03.00 bitrate=1398.2kbits/s speed=0.0144x elapsed=0:03:28.96    \nframe=  183 fps=0.9 q=41.9 size=     512KiB time=00:00:03.01 bitrate=1390.5kbits/s speed=0.0144x elapsed=0:03:29.50    \nframe=  184 fps=0.9 q=35.1 size=     512KiB time=00:00:03.03 bitrate=1382.9kbits/s speed=0.0144x elapsed=0:03:30.02    \nframe=  184 fps=0.9 q=35.1 size=     512KiB time=00:00:03.03 bitrate=1382.9kbits/s speed=0.0144x elapsed=0:03:30.54    \nframe=  185 fps=0.9 q=38.3 size=     512KiB time=00:00:03.05 bitrate=1375.3kbits/s speed=0.0144x elapsed=0:03:31.09    \nframe=  186 fps=0.9 q=40.9 size=     512KiB time=00:00:03.06 bitrate=1367.8kbits/s speed=0.0145x elapsed=0:03:31.62    \nframe=  187 fps=0.9 q=40.6 size=     512KiB time=00:00:03.08 bitrate=1360.4kbits/s speed=0.0145x elapsed=0:03:32.14    \nframe=  188 fps=0.9 q=40.7 size=     512KiB time=00:00:03.10 bitrate=1353.1kbits/s speed=0.0146x elapsed=0:03:32.68    \nframe=  188 fps=0.9 q=40.7 size=     512KiB time=00:00:03.10 bitrate=1353.1kbits/s speed=0.0145x elapsed=0:03:33.21    \nframe=  189 fps=0.9 q=35.5 size=     512KiB time=00:00:03.11 bitrate=1345.9kbits/s speed=0.0146x elapsed=0:03:33.75    \nframe=  189 fps=0.9 q=35.5 size=     512KiB time=00:00:03.11 bitrate=1345.9kbits/s speed=0.0145x elapsed=0:03:34.26    \nframe=  189 fps=0.9 q=35.5 size=     512KiB time=00:00:03.11 bitrate=1345.9kbits/s speed=0.0145x elapsed=0:03:34.77    \nframe=  189 fps=0.9 q=35.5 size=     512KiB time=00:00:03.11 bitrate=1345.9kbits/s speed=0.0145x elapsed=0:03:35.30    \nframe=  190 fps=0.9 q=35.3 size=     512KiB time=00:00:03.13 bitrate=1338.7kbits/s speed=0.0145x elapsed=0:03:35.85    \nframe=  191 fps=0.9 q=40.8 size=     512KiB time=00:00:03.15 bitrate=1331.6kbits/s speed=0.0146x elapsed=0:03:36.38    \nframe=  193 fps=0.9 q=40.9 size=     512KiB time=00:00:03.18 bitrate=1317.7kbits/s speed=0.0147x elapsed=0:03:36.91    \nframe=  193 fps=0.9 q=40.9 size=     512KiB time=00:00:03.18 bitrate=1317.7kbits/s speed=0.0146x elapsed=0:03:37.43    \nframe=  194 fps=0.9 q=35.1 size=     512KiB time=00:00:03.20 bitrate=1310.8kbits/s speed=0.0147x elapsed=0:03:37.97    \nframe=  194 fps=0.9 q=35.1 size=     512KiB time=00:00:03.20 bitrate=1310.8kbits/s speed=0.0146x elapsed=0:03:38.49    \nframe=  194 fps=0.9 q=35.1 size=     512KiB time=00:00:03.20 bitrate=1310.8kbits/s speed=0.0146x elapsed=0:03:39.02    \nframe=  194 fps=0.9 q=35.1 size=     512KiB time=00:00:03.20 bitrate=1310.8kbits/s speed=0.0146x elapsed=0:03:39.54    \nframe=  195 fps=0.9 q=37.0 size=     512KiB time=00:00:03.21 bitrate=1304.0kbits/s speed=0.0146x elapsed=0:03:40.08    \nframe=  196 fps=0.9 q=40.9 size=     512KiB time=00:00:03.23 bitrate=1297.3kbits/s speed=0.0147x elapsed=0:03:40.59    \nframe=  196 fps=0.9 q=40.9 size=     512KiB time=00:00:03.23 bitrate=1297.3kbits/s speed=0.0146x elapsed=0:03:41.10    \nframe=  196 fps=0.9 q=40.9 size=     512KiB time=00:00:03.23 bitrate=1297.3kbits/s speed=0.0146x elapsed=0:03:41.62    \nframe=  198 fps=0.9 q=40.9 size=     512KiB time=00:00:03.26 bitrate=1284.1kbits/s speed=0.0147x elapsed=0:03:42.13    \nframe=  199 fps=0.9 q=35.2 size=     512KiB time=00:00:03.28 bitrate=1277.6kbits/s speed=0.0147x elapsed=0:03:42.68    \nframe=  199 fps=0.9 q=35.2 size=     512KiB time=00:00:03.28 bitrate=1277.6kbits/s speed=0.0147x elapsed=0:03:43.22    \nframe=  200 fps=0.9 q=39.7 size=     512KiB time=00:00:03.30 bitrate=1271.1kbits/s speed=0.0147x elapsed=0:03:43.77    \nframe=  200 fps=0.9 q=39.7 size=     512KiB time=00:00:03.30 bitrate=1271.1kbits/s speed=0.0147x elapsed=0:03:44.28    \nframe=  200 fps=0.9 q=39.7 size=     512KiB time=00:00:03.30 bitrate=1271.1kbits/s speed=0.0147x elapsed=0:03:44.83    \nframe=  201 fps=0.9 q=41.0 size=     512KiB time=00:00:03.31 bitrate=1264.7kbits/s speed=0.0147x elapsed=0:03:45.37    \nframe=  202 fps=0.9 q=40.7 size=     512KiB time=00:00:03.33 bitrate=1258.4kbits/s speed=0.0148x elapsed=0:03:45.89    \nframe=  203 fps=0.9 q=40.8 size=     512KiB time=00:00:03.35 bitrate=1252.1kbits/s speed=0.0148x elapsed=0:03:46.42    \nframe=  203 fps=0.9 q=40.8 size=     512KiB time=00:00:03.35 bitrate=1252.1kbits/s speed=0.0148x elapsed=0:03:46.94    \nframe=  203 fps=0.9 q=40.8 size=     512KiB time=00:00:03.35 bitrate=1252.1kbits/s speed=0.0147x elapsed=0:03:47.46    \nframe=  204 fps=0.9 q=35.4 size=     512KiB time=00:00:03.36 bitrate=1245.9kbits/s speed=0.0148x elapsed=0:03:47.97    \nframe=  204 fps=0.9 q=35.4 size=     512KiB time=00:00:03.36 bitrate=1245.9kbits/s speed=0.0147x elapsed=0:03:48.49    \nframe=  204 fps=0.9 q=35.4 size=     512KiB time=00:00:03.36 bitrate=1245.9kbits/s speed=0.0147x elapsed=0:03:49.01    \nframe=  205 fps=0.9 q=38.8 size=     512KiB time=00:00:03.38 bitrate=1239.8kbits/s speed=0.0147x elapsed=0:03:49.55    \nframe=  206 fps=0.9 q=40.7 size=     512KiB time=00:00:03.40 bitrate=1233.7kbits/s speed=0.0148x elapsed=0:03:50.07    \nframe=  208 fps=0.9 q=34.9 size=     512KiB time=00:00:03.43 bitrate=1221.7kbits/s speed=0.0149x elapsed=0:03:50.59    \nframe=  209 fps=0.9 q=38.0 size=     512KiB time=00:00:03.45 bitrate=1215.8kbits/s speed=0.0149x elapsed=0:03:51.11    \nframe=  209 fps=0.9 q=38.0 size=     512KiB time=00:00:03.45 bitrate=1215.8kbits/s speed=0.0149x elapsed=0:03:51.64    \nframe=  210 fps=0.9 q=39.9 size=     512KiB time=00:00:03.46 bitrate=1210.0kbits/s speed=0.0149x elapsed=0:03:52.19    \nframe=  210 fps=0.9 q=39.9 size=     512KiB time=00:00:03.46 bitrate=1210.0kbits/s speed=0.0149x elapsed=0:03:52.74    \nframe=  210 fps=0.9 q=39.9 size=     512KiB time=00:00:03.46 bitrate=1210.0kbits/s speed=0.0149x elapsed=0:03:53.27    \nframe=  211 fps=0.9 q=40.0 size=     512KiB time=00:00:03.48 bitrate=1204.2kbits/s speed=0.0149x elapsed=0:03:53.80    \nframe=  212 fps=0.9 q=39.7 size=     512KiB time=00:00:03.50 bitrate=1198.5kbits/s speed=0.0149x elapsed=0:03:54.33    \nframe=  212 fps=0.9 q=39.7 size=     512KiB time=00:00:03.50 bitrate=1198.5kbits/s speed=0.0149x elapsed=0:03:54.83    \nframe=  212 fps=0.9 q=39.7 size=     512KiB time=00:00:03.50 bitrate=1198.5kbits/s speed=0.0149x elapsed=0:03:55.39    \nframe=  213 fps=0.9 q=35.6 size=     512KiB time=00:00:03.51 bitrate=1192.8kbits/s speed=0.0149x elapsed=0:03:55.91    \nframe=  214 fps=0.9 q=39.5 size=     512KiB time=00:00:03.53 bitrate=1187.2kbits/s speed=0.0149x elapsed=0:03:56.43    \nframe=  214 fps=0.9 q=39.5 size=     512KiB time=00:00:03.53 bitrate=1187.2kbits/s speed=0.0149x elapsed=0:03:56.95    \nframe=  215 fps=0.9 q=40.5 size=     512KiB time=00:00:03.55 bitrate=1181.6kbits/s speed=0.0149x elapsed=0:03:57.46    \nframe=  216 fps=0.9 q=39.8 size=     512KiB time=00:00:03.56 bitrate=1176.1kbits/s speed=0.015x elapsed=0:03:57.97    \nframe=  216 fps=0.9 q=39.8 size=     512KiB time=00:00:03.56 bitrate=1176.1kbits/s speed=0.015x elapsed=0:03:58.49    \nframe=  216 fps=0.9 q=39.8 size=     512KiB time=00:00:03.56 bitrate=1176.1kbits/s speed=0.0149x elapsed=0:03:59.02    \nframe=  216 fps=0.9 q=39.8 size=     512KiB time=00:00:03.56 bitrate=1176.1kbits/s speed=0.0149x elapsed=0:03:59.54    \nframe=  217 fps=0.9 q=39.7 size=     512KiB time=00:00:03.58 bitrate=1170.6kbits/s speed=0.0149x elapsed=0:04:00.08    \nframe=  217 fps=0.9 q=39.7 size=     512KiB time=00:00:03.58 bitrate=1170.6kbits/s speed=0.0149x elapsed=0:04:00.61    \nframe=  217 fps=0.9 q=39.7 size=     512KiB time=00:00:03.58 bitrate=1170.6kbits/s speed=0.0149x elapsed=0:04:01.13    \nframe=  218 fps=0.9 q=35.4 size=     512KiB time=00:00:03.60 bitrate=1165.2kbits/s speed=0.0149x elapsed=0:04:01.65    \nframe=  219 fps=0.9 q=39.6 size=     512KiB time=00:00:03.61 bitrate=1159.8kbits/s speed=0.0149x elapsed=0:04:02.19    \nframe=  219 fps=0.9 q=39.6 size=     512KiB time=00:00:03.61 bitrate=1159.8kbits/s speed=0.0149x elapsed=0:04:02.72    \nframe=  220 fps=0.9 q=40.7 size=     512KiB time=00:00:03.63 bitrate=1154.5kbits/s speed=0.0149x elapsed=0:04:03.25    \nframe=  220 fps=0.9 q=40.7 size=     512KiB time=00:00:03.63 bitrate=1154.5kbits/s speed=0.0149x elapsed=0:04:03.78    \nframe=  220 fps=0.9 q=40.7 size=     512KiB time=00:00:03.63 bitrate=1154.5kbits/s speed=0.0149x elapsed=0:04:04.30    \nframe=  221 fps=0.9 q=40.5 size=     512KiB time=00:00:03.65 bitrate=1149.2kbits/s speed=0.0149x elapsed=0:04:04.82    \nframe=  223 fps=0.9 q=35.3 size=     512KiB time=00:00:03.68 bitrate=1138.8kbits/s speed=0.015x elapsed=0:04:05.33    \nframe=  225 fps=0.9 q=40.6 size=     512KiB time=00:00:03.71 bitrate=1128.6kbits/s speed=0.0151x elapsed=0:04:05.85    \nframe=  225 fps=0.9 q=40.6 size=     512KiB time=00:00:03.71 bitrate=1128.6kbits/s speed=0.0151x elapsed=0:04:06.37    \nframe=  227 fps=0.9 q=41.0 size=     512KiB time=00:00:03.75 bitrate=1118.6kbits/s speed=0.0152x elapsed=0:04:06.88    \nframe=  229 fps=0.9 q=40.1 size=     512KiB time=00:00:03.78 bitrate=1108.7kbits/s speed=0.0153x elapsed=0:04:07.40    \nframe=  230 fps=0.9 q=41.9 size=     512KiB time=00:00:03.80 bitrate=1103.9kbits/s speed=0.0153x elapsed=0:04:07.92    \nframe=  231 fps=0.9 q=41.9 size=     512KiB time=00:00:03.81 bitrate=1099.0kbits/s speed=0.0154x elapsed=0:04:08.43    \nframe=  232 fps=0.9 q=36.2 size=     512KiB time=00:00:03.83 bitrate=1094.3kbits/s speed=0.0154x elapsed=0:04:08.94    \nframe=  234 fps=0.9 q=42.7 size=     512KiB time=00:00:03.86 bitrate=1084.8kbits/s speed=0.0155x elapsed=0:04:09.46    \nframe=  234 fps=0.9 q=42.7 size=     512KiB time=00:00:03.86 bitrate=1084.8kbits/s speed=0.0155x elapsed=0:04:09.98    \nframe=  236 fps=0.9 q=42.1 size=     512KiB time=00:00:03.90 bitrate=1075.6kbits/s speed=0.0156x elapsed=0:04:10.49    \nframe=  238 fps=0.9 q=38.2 size=     512KiB time=00:00:03.93 bitrate=1066.4kbits/s speed=0.0157x elapsed=0:04:11.02    \nframe=  239 fps=1.0 q=42.1 size=     512KiB time=00:00:03.95 bitrate=1061.9kbits/s speed=0.0157x elapsed=0:04:11.52    \nframe=  240 fps=1.0 q=42.1 size=     512KiB time=00:00:03.96 bitrate=1057.5kbits/s speed=0.0157x elapsed=0:04:12.03    \nframe=  242 fps=1.0 q=36.5 size=     512KiB time=00:00:04.00 bitrate=1048.7kbits/s speed=0.0158x elapsed=0:04:12.55    \nframe=  244 fps=1.0 q=42.0 size=     512KiB time=00:00:04.03 bitrate=1040.0kbits/s speed=0.0159x elapsed=0:04:13.08    \nframe=  244 fps=1.0 q=42.0 size=     512KiB time=00:00:04.03 bitrate=1040.0kbits/s speed=0.0159x elapsed=0:04:13.61    \nframe=  246 fps=1.0 q=42.0 size=     512KiB time=00:00:04.06 bitrate=1031.5kbits/s speed=0.016x elapsed=0:04:14.11    \nframe=  247 fps=1.0 q=36.0 size=     512KiB time=00:00:04.08 bitrate=1027.3kbits/s speed=0.016x elapsed=0:04:14.63    \nframe=  248 fps=1.0 q=40.3 size=     512KiB time=00:00:04.10 bitrate=1023.1kbits/s speed=0.0161x elapsed=0:04:15.15    \nframe=  248 fps=1.0 q=40.3 size=     512KiB time=00:00:04.10 bitrate=1023.1kbits/s speed=0.016x elapsed=0:04:15.67    \nframe=  249 fps=1.0 q=41.9 size=     512KiB time=00:00:04.11 bitrate=1018.9kbits/s speed=0.0161x elapsed=0:04:16.19    \nframe=  251 fps=1.0 q=33.8 size=     512KiB time=00:00:04.15 bitrate=1010.8kbits/s speed=0.0162x elapsed=0:04:16.71    \nframe=  252 fps=1.0 q=37.1 size=     512KiB time=00:00:04.16 bitrate=1006.7kbits/s speed=0.0162x elapsed=0:04:17.23    \nframe=  254 fps=1.0 q=43.0 size=     512KiB time=00:00:04.20 bitrate= 998.7kbits/s speed=0.0163x elapsed=0:04:17.75    \nframe=  255 fps=1.0 q=43.1 size=     512KiB time=00:00:04.21 bitrate= 994.8kbits/s speed=0.0163x elapsed=0:04:18.27    \nframe=  257 fps=1.0 q=40.9 size=     768KiB time=00:00:04.25 bitrate=1480.4kbits/s speed=0.0164x elapsed=0:04:18.78    \nframe=  258 fps=1.0 q=43.1 size=     768KiB time=00:00:04.26 bitrate=1474.6kbits/s speed=0.0165x elapsed=0:04:19.28    \nframe=  259 fps=1.0 q=43.0 size=     768KiB time=00:00:04.28 bitrate=1468.9kbits/s speed=0.0165x elapsed=0:04:19.81    \nframe=  260 fps=1.0 q=43.0 size=     768KiB time=00:00:04.30 bitrate=1463.2kbits/s speed=0.0165x elapsed=0:04:20.32    \nframe=  262 fps=1.0 q=38.3 size=     768KiB time=00:00:04.33 bitrate=1452.0kbits/s speed=0.0166x elapsed=0:04:20.85    \nframe=  263 fps=1.0 q=43.0 size=     768KiB time=00:00:04.35 bitrate=1446.4kbits/s speed=0.0166x elapsed=0:04:21.36    \nframe=  264 fps=1.0 q=43.1 size=     768KiB time=00:00:04.36 bitrate=1440.9kbits/s speed=0.0167x elapsed=0:04:21.87    \nframe=  266 fps=1.0 q=37.0 size=     768KiB time=00:00:04.40 bitrate=1430.0kbits/s speed=0.0168x elapsed=0:04:22.39    \nframe=  267 fps=1.0 q=42.3 size=     768KiB time=00:00:04.41 bitrate=1424.6kbits/s speed=0.0168x elapsed=0:04:22.89    \nframe=  268 fps=1.0 q=43.7 size=     768KiB time=00:00:04.43 bitrate=1419.2kbits/s speed=0.0168x elapsed=0:04:23.41    \nframe=  269 fps=1.0 q=43.8 size=     768KiB time=00:00:04.45 bitrate=1413.9kbits/s speed=0.0169x elapsed=0:04:23.93    \nframe=  272 fps=1.0 q=41.2 size=     768KiB time=00:00:04.50 bitrate=1398.2kbits/s speed=0.017x elapsed=0:04:24.45    \nframe=  272 fps=1.0 q=41.2 size=     768KiB time=00:00:04.50 bitrate=1398.2kbits/s speed=0.017x elapsed=0:04:24.97    \nframe=  274 fps=1.0 q=43.0 size=     768KiB time=00:00:04.53 bitrate=1387.9kbits/s speed=0.0171x elapsed=0:04:25.48    \nframe=  275 fps=1.0 q=36.8 size=     768KiB time=00:00:04.55 bitrate=1382.8kbits/s speed=0.0171x elapsed=0:04:25.99    \nframe=  276 fps=1.0 q=40.4 size=     768KiB time=00:00:04.56 bitrate=1377.8kbits/s speed=0.0171x elapsed=0:04:26.51    \nframe=  277 fps=1.0 q=42.8 size=     768KiB time=00:00:04.58 bitrate=1372.8kbits/s speed=0.0172x elapsed=0:04:27.03    \nframe=  278 fps=1.0 q=42.8 size=     768KiB time=00:00:04.60 bitrate=1367.8kbits/s speed=0.0172x elapsed=0:04:27.56    \nframe=  280 fps=1.0 q=36.4 size=     768KiB time=00:00:04.63 bitrate=1357.9kbits/s speed=0.0173x elapsed=0:04:28.07    \nframe=  281 fps=1.0 q=40.8 size=     768KiB time=00:00:04.65 bitrate=1353.1kbits/s speed=0.0173x elapsed=0:04:28.59    \nframe=  282 fps=1.0 q=43.1 size=     768KiB time=00:00:04.66 bitrate=1348.2kbits/s speed=0.0173x elapsed=0:04:29.11    \nframe=  283 fps=1.0 q=43.0 size=     768KiB time=00:00:04.68 bitrate=1343.4kbits/s speed=0.0174x elapsed=0:04:29.63    \nframe=  285 fps=1.1 q=36.5 size=     768KiB time=00:00:04.71 bitrate=1334.0kbits/s speed=0.0175x elapsed=0:04:30.15    \nframe=  287 fps=1.1 q=43.1 size=     768KiB time=00:00:04.75 bitrate=1324.6kbits/s speed=0.0175x elapsed=0:04:30.66    \nframe=  288 fps=1.1 q=43.0 size=     768KiB time=00:00:04.76 bitrate=1320.0kbits/s speed=0.0176x elapsed=0:04:31.19    \nframe=  289 fps=1.1 q=43.1 size=     768KiB time=00:00:04.78 bitrate=1315.4kbits/s speed=0.0176x elapsed=0:04:31.70    \nframe=  291 fps=1.1 q=41.9 size=     768KiB time=00:00:04.81 bitrate=1306.3kbits/s speed=0.0177x elapsed=0:04:32.21    \nframe=  292 fps=1.1 q=42.9 size=     768KiB time=00:00:04.83 bitrate=1301.8kbits/s speed=0.0177x elapsed=0:04:32.73    \nframe=  293 fps=1.1 q=43.0 size=     768KiB time=00:00:04.85 bitrate=1297.3kbits/s speed=0.0177x elapsed=0:04:33.25    \nframe=  295 fps=1.1 q=36.6 size=     768KiB time=00:00:04.88 bitrate=1288.4kbits/s speed=0.0178x elapsed=0:04:33.77    \nframe=  297 fps=1.1 q=43.1 size=     768KiB time=00:00:04.91 bitrate=1279.7kbits/s speed=0.0179x elapsed=0:04:34.28    \nframe=  297 fps=1.1 q=43.1 size=     768KiB time=00:00:04.91 bitrate=1279.7kbits/s speed=0.0179x elapsed=0:04:34.79    \nframe=  299 fps=1.1 q=43.1 size=     768KiB time=00:00:04.95 bitrate=1271.1kbits/s speed=0.018x elapsed=0:04:35.31    \nframe=  301 fps=1.1 q=42.2 size=     768KiB time=00:00:04.98 bitrate=1262.6kbits/s speed=0.0181x elapsed=0:04:35.83    \nframe=  302 fps=1.1 q=44.0 size=     768KiB time=00:00:05.00 bitrate=1258.4kbits/s speed=0.0181x elapsed=0:04:36.33    \nframe=  303 fps=1.1 q=43.9 size=     768KiB time=00:00:05.01 bitrate=1254.2kbits/s speed=0.0181x elapsed=0:04:36.85    \nframe=  304 fps=1.1 q=43.9 size=     768KiB time=00:00:05.03 bitrate=1250.0kbits/s speed=0.0181x elapsed=0:04:37.37    \nframe=  306 fps=1.1 q=42.0 size=     768KiB time=00:00:05.06 bitrate=1241.8kbits/s speed=0.0182x elapsed=0:04:37.88    \nframe=  308 fps=1.1 q=43.9 size=     768KiB time=00:00:05.10 bitrate=1233.7kbits/s speed=0.0183x elapsed=0:04:38.41    \nframe=  310 fps=1.1 q=36.3 size=     768KiB time=00:00:05.13 bitrate=1225.7kbits/s speed=0.0184x elapsed=0:04:38.94    \nframe=  311 fps=1.1 q=41.4 size=     768KiB time=00:00:05.15 bitrate=1221.7kbits/s speed=0.0184x elapsed=0:04:39.45    \nframe=  312 fps=1.1 q=44.0 size=     768KiB time=00:00:05.16 bitrate=1217.8kbits/s speed=0.0185x elapsed=0:04:39.97    \nframe=  314 fps=1.1 q=42.2 size=     768KiB time=00:00:05.20 bitrate=1210.0kbits/s speed=0.0185x elapsed=0:04:40.49    \nframe=  315 fps=1.1 q=43.1 size=     768KiB time=00:00:05.21 bitrate=1206.1kbits/s speed=0.0186x elapsed=0:04:41.02    \nframe=  316 fps=1.1 q=43.0 size=     768KiB time=00:00:05.23 bitrate=1202.3kbits/s speed=0.0186x elapsed=0:04:41.52    \nframe=  318 fps=1.1 q=36.1 size=     768KiB time=00:00:05.26 bitrate=1194.6kbits/s speed=0.0187x elapsed=0:04:42.04    \nframe=  319 fps=1.1 q=38.2 size=     768KiB time=00:00:05.28 bitrate=1190.9kbits/s speed=0.0187x elapsed=0:04:42.56    \nframe=  320 fps=1.1 q=44.0 size=     768KiB time=00:00:05.30 bitrate=1187.1kbits/s speed=0.0187x elapsed=0:04:43.06    \nframe=  321 fps=1.1 q=43.9 size=     768KiB time=00:00:05.31 bitrate=1183.4kbits/s speed=0.0187x elapsed=0:04:43.59    \nframe=  323 fps=1.1 q=36.3 size=     768KiB time=00:00:05.35 bitrate=1176.0kbits/s speed=0.0188x elapsed=0:04:44.10    \nframe=  325 fps=1.1 q=43.2 size=     768KiB time=00:00:05.38 bitrate=1168.8kbits/s speed=0.0189x elapsed=0:04:44.62    \nframe=  325 fps=1.1 q=43.2 size=     768KiB time=00:00:05.38 bitrate=1168.8kbits/s speed=0.0189x elapsed=0:04:45.13    \nframe=  327 fps=1.1 q=43.8 size=     768KiB time=00:00:05.41 bitrate=1161.6kbits/s speed=0.019x elapsed=0:04:45.65    \nframe=  329 fps=1.1 q=39.7 size=     768KiB time=00:00:05.45 bitrate=1154.5kbits/s speed=0.019x elapsed=0:04:46.17    \nframe=  330 fps=1.2 q=44.1 size=     768KiB time=00:00:05.46 bitrate=1150.9kbits/s speed=0.0191x elapsed=0:04:46.68    \nframe=  331 fps=1.2 q=44.1 size=     768KiB time=00:00:05.48 bitrate=1147.4kbits/s speed=0.0191x elapsed=0:04:47.20    \nframe=  332 fps=1.2 q=44.0 size=     768KiB time=00:00:05.50 bitrate=1144.0kbits/s speed=0.0191x elapsed=0:04:47.72    \nframe=  334 fps=1.2 q=43.0 size=     768KiB time=00:00:05.53 bitrate=1137.1kbits/s speed=0.0192x elapsed=0:04:48.22    \nframe=  336 fps=1.2 q=44.0 size=     768KiB time=00:00:05.56 bitrate=1130.3kbits/s speed=0.0193x elapsed=0:04:48.75    \nframe=  337 fps=1.2 q=44.1 size=    1024KiB time=00:00:05.58 bitrate=1502.5kbits/s speed=0.0193x elapsed=0:04:49.26    \nframe=  339 fps=1.2 q=42.9 size=    1024KiB time=00:00:05.61 bitrate=1493.6kbits/s speed=0.0194x elapsed=0:04:49.78    \nframe=  340 fps=1.2 q=43.9 size=    1024KiB time=00:00:05.63 bitrate=1489.2kbits/s speed=0.0194x elapsed=0:04:50.29    \nframe=  341 fps=1.2 q=44.0 size=    1024KiB time=00:00:05.65 bitrate=1484.8kbits/s speed=0.0194x elapsed=0:04:50.80    \nframe=  344 fps=1.2 q=43.1 size=    1024KiB time=00:00:05.70 bitrate=1471.7kbits/s speed=0.0196x elapsed=0:04:51.32    \nframe=  345 fps=1.2 q=44.0 size=    1024KiB time=00:00:05.71 bitrate=1467.5kbits/s speed=0.0196x elapsed=0:04:51.84    \nframe=  347 fps=1.2 q=44.0 size=    1024KiB time=00:00:05.75 bitrate=1458.9kbits/s speed=0.0197x elapsed=0:04:52.36    \nframe=  348 fps=1.2 q=36.4 size=    1024KiB time=00:00:05.76 bitrate=1454.7kbits/s speed=0.0197x elapsed=0:04:52.87    \nframe=  350 fps=1.2 q=44.1 size=    1024KiB time=00:00:05.80 bitrate=1446.4kbits/s speed=0.0198x elapsed=0:04:53.38    \nframe=  351 fps=1.2 q=44.1 size=    1024KiB time=00:00:05.81 bitrate=1442.2kbits/s speed=0.0198x elapsed=0:04:53.90    \nframe=  352 fps=1.2 q=44.0 size=    1024KiB time=00:00:05.83 bitrate=1438.1kbits/s speed=0.0198x elapsed=0:04:54.42    \nframe=  354 fps=1.2 q=42.0 size=    1024KiB time=00:00:05.86 bitrate=1429.9kbits/s speed=0.0199x elapsed=0:04:54.93    \nframe=  355 fps=1.2 q=44.0 size=    1024KiB time=00:00:05.88 bitrate=1425.9kbits/s speed=0.0199x elapsed=0:04:55.45    \nframe=  356 fps=1.2 q=43.9 size=    1024KiB time=00:00:05.90 bitrate=1421.9kbits/s speed=0.0199x elapsed=0:04:55.96    \nframe=  358 fps=1.2 q=41.6 size=    1024KiB time=00:00:05.93 bitrate=1413.9kbits/s speed=0.02x elapsed=0:04:56.47    \nframe=  359 fps=1.2 q=44.0 size=    1024KiB time=00:00:05.95 bitrate=1409.9kbits/s speed=0.02x elapsed=0:04:56.99    \nframe=  361 fps=1.2 q=44.0 size=    1024KiB time=00:00:05.98 bitrate=1402.1kbits/s speed=0.0201x elapsed=0:04:57.52    \nframe=  363 fps=1.2 q=41.5 size=    1024KiB time=00:00:06.01 bitrate=1394.3kbits/s speed=0.0202x elapsed=0:04:58.02    \nframe=  365 fps=1.2 q=43.0 size=    1024KiB time=00:00:06.05 bitrate=1386.6kbits/s speed=0.0203x elapsed=0:04:58.54    \nframe=  367 fps=1.2 q=36.8 size=    1024KiB time=00:00:06.08 bitrate=1379.0kbits/s speed=0.0203x elapsed=0:04:59.06    \nframe=  368 fps=1.2 q=41.8 size=    1024KiB time=00:00:06.10 bitrate=1375.2kbits/s speed=0.0204x elapsed=0:04:59.57    \nframe=  369 fps=1.2 q=43.1 size=    1024KiB time=00:00:06.11 bitrate=1371.5kbits/s speed=0.0204x elapsed=0:05:00.09    \nframe=  371 fps=1.2 q=36.2 size=    1024KiB time=00:00:06.15 bitrate=1364.1kbits/s speed=0.0205x elapsed=0:05:00.60    \nframe=  373 fps=1.2 q=43.1 size=    1024KiB time=00:00:06.18 bitrate=1356.7kbits/s speed=0.0205x elapsed=0:05:01.12    \nframe=  374 fps=1.2 q=43.1 size=    1024KiB time=00:00:06.20 bitrate=1353.1kbits/s speed=0.0206x elapsed=0:05:01.64    \nframe=  376 fps=1.2 q=36.7 size=    1024KiB time=00:00:06.23 bitrate=1345.8kbits/s speed=0.0206x elapsed=0:05:02.15    \nframe=  378 fps=1.2 q=42.9 size=    1024KiB time=00:00:06.25 bitrate=1342.2kbits/s speed=0.0206x elapsed=0:05:02.66    \nframe=  379 fps=1.3 q=36.3 size=    1024KiB time=00:00:06.28 bitrate=1335.1kbits/s speed=0.0207x elapsed=0:05:03.18    \nframe=  381 fps=1.3 q=42.9 size=    1024KiB time=00:00:06.31 bitrate=1328.1kbits/s speed=0.0208x elapsed=0:05:03.70    \nframe=  382 fps=1.3 q=43.0 size=    1024KiB time=00:00:06.33 bitrate=1324.6kbits/s speed=0.0208x elapsed=0:05:04.23    \nframe=  384 fps=1.3 q=36.6 size=    1024KiB time=00:00:06.36 bitrate=1317.6kbits/s speed=0.0209x elapsed=0:05:04.74    \nframe=  386 fps=1.3 q=43.0 size=    1024KiB time=00:00:06.40 bitrate=1310.8kbits/s speed=0.021x elapsed=0:05:05.27    \nframe=  388 fps=1.3 q=43.0 size=    1024KiB time=00:00:06.43 bitrate=1304.0kbits/s speed=0.021x elapsed=0:05:05.78    \nframe=  389 fps=1.3 q=36.4 size=    1024KiB time=00:00:06.45 bitrate=1300.6kbits/s speed=0.0211x elapsed=0:05:06.29    \nframe=  390 fps=1.3 q=38.3 size=    1024KiB time=00:00:06.46 bitrate=1297.3kbits/s speed=0.0211x elapsed=0:05:06.80    \nframe=  392 fps=1.3 q=43.0 size=    1024KiB time=00:00:06.50 bitrate=1290.6kbits/s speed=0.0212x elapsed=0:05:07.32    \nframe=  393 fps=1.3 q=43.0 size=    1024KiB time=00:00:06.51 bitrate=1287.3kbits/s speed=0.0212x elapsed=0:05:07.83    \nframe=  395 fps=1.3 q=39.5 size=    1024KiB time=00:00:06.55 bitrate=1280.8kbits/s speed=0.0212x elapsed=0:05:08.36    \nframe=  397 fps=1.3 q=43.1 size=    1024KiB time=00:00:06.58 bitrate=1274.3kbits/s speed=0.0213x elapsed=0:05:08.86    \nframe=  398 fps=1.3 q=43.0 size=    1024KiB time=00:00:06.60 bitrate=1271.1kbits/s speed=0.0213x elapsed=0:05:09.38    \nframe=  400 fps=1.3 q=42.2 size=    1024KiB time=00:00:06.63 bitrate=1264.7kbits/s speed=0.0214x elapsed=0:05:09.90    \nframe=  401 fps=1.3 q=43.1 size=    1024KiB time=00:00:06.65 bitrate=1261.5kbits/s speed=0.0214x elapsed=0:05:10.42    \nframe=  402 fps=1.3 q=43.0 size=    1024KiB time=00:00:06.66 bitrate=1258.3kbits/s speed=0.0214x elapsed=0:05:10.93    \nframe=  404 fps=1.3 q=36.5 size=    1024KiB time=00:00:06.70 bitrate=1252.1kbits/s speed=0.0215x elapsed=0:05:11.44    \nframe=  406 fps=1.3 q=43.0 size=    1024KiB time=00:00:06.73 bitrate=1245.9kbits/s speed=0.0216x elapsed=0:05:11.96    \nframe=  408 fps=1.3 q=43.0 size=    1024KiB time=00:00:06.76 bitrate=1239.7kbits/s speed=0.0217x elapsed=0:05:12.48    \nframe=  409 fps=1.3 q=36.3 size=    1024KiB time=00:00:06.78 bitrate=1236.7kbits/s speed=0.0217x elapsed=0:05:13.00    \nframe=  410 fps=1.3 q=41.5 size=    1024KiB time=00:00:06.80 bitrate=1233.7kbits/s speed=0.0217x elapsed=0:05:13.51    \nframe=  412 fps=1.3 q=42.0 size=    1024KiB time=00:00:06.83 bitrate=1227.7kbits/s speed=0.0218x elapsed=0:05:14.02    \nframe=  414 fps=1.3 q=40.1 size=    1024KiB time=00:00:06.86 bitrate=1221.7kbits/s speed=0.0218x elapsed=0:05:14.54    \nframe=  415 fps=1.3 q=42.1 size=    1024KiB time=00:00:06.88 bitrate=1218.7kbits/s speed=0.0218x elapsed=0:05:15.06    \nframe=  417 fps=1.3 q=42.0 size=    1024KiB time=00:00:06.91 bitrate=1212.9kbits/s speed=0.0219x elapsed=0:05:15.57    \nframe=  419 fps=1.3 q=40.5 size=    1024KiB time=00:00:06.95 bitrate=1207.0kbits/s speed=0.022x elapsed=0:05:16.08    \nframe=  420 fps=1.3 q=42.9 size=    1024KiB time=00:00:06.96 bitrate=1204.2kbits/s speed=0.022x elapsed=0:05:16.60    \nframe=  422 fps=1.3 q=42.2 size=    1024KiB time=00:00:07.00 bitrate=1198.4kbits/s speed=0.0221x elapsed=0:05:17.12    \nframe=  424 fps=1.3 q=40.3 size=    1024KiB time=00:00:07.03 bitrate=1192.7kbits/s speed=0.0221x elapsed=0:05:17.64    \nframe=  425 fps=1.3 q=42.1 size=    1024KiB time=00:00:07.05 bitrate=1189.9kbits/s speed=0.0222x elapsed=0:05:18.16    \nframe=  426 fps=1.3 q=42.3 size=    1024KiB time=00:00:07.06 bitrate=1187.1kbits/s speed=0.0222x elapsed=0:05:18.66    \nframe=  428 fps=1.3 q=36.2 size=    1024KiB time=00:00:07.10 bitrate=1181.5kbits/s speed=0.0222x elapsed=0:05:19.17    \nframe=  430 fps=1.3 q=42.0 size=    1024KiB time=00:00:07.13 bitrate=1176.0kbits/s speed=0.0223x elapsed=0:05:19.70    \nframe=  431 fps=1.3 q=42.1 size=    1024KiB time=00:00:07.15 bitrate=1173.3kbits/s speed=0.0223x elapsed=0:05:20.22    \nframe=  432 fps=1.3 q=42.0 size=    1024KiB time=00:00:07.16 bitrate=1170.6kbits/s speed=0.0223x elapsed=0:05:20.74    \nframe=  434 fps=1.4 q=40.7 size=    1280KiB time=00:00:07.20 bitrate=1456.4kbits/s speed=0.0224x elapsed=0:05:21.24    \nframe=  435 fps=1.4 q=42.0 size=    1280KiB time=00:00:07.21 bitrate=1453.0kbits/s speed=0.0224x elapsed=0:05:21.75    \nframe=  437 fps=1.4 q=36.1 size=    1280KiB time=00:00:07.25 bitrate=1446.4kbits/s speed=0.0225x elapsed=0:05:22.28    \nframe=  438 fps=1.4 q=41.0 size=    1280KiB time=00:00:07.26 bitrate=1443.0kbits/s speed=0.0225x elapsed=0:05:22.80    \nframe=  439 fps=1.4 q=42.0 size=    1280KiB time=00:00:07.28 bitrate=1439.7kbits/s speed=0.0225x elapsed=0:05:23.31    \nframe=  440 fps=1.4 q=35.6 size=    1280KiB time=00:00:07.30 bitrate=1436.5kbits/s speed=0.0225x elapsed=0:05:23.82    \nframe=  442 fps=1.4 q=42.1 size=    1280KiB time=00:00:07.33 bitrate=1429.9kbits/s speed=0.0226x elapsed=0:05:24.33    \nframe=  443 fps=1.4 q=42.1 size=    1280KiB time=00:00:07.35 bitrate=1426.7kbits/s speed=0.0226x elapsed=0:05:24.85    \nframe=  445 fps=1.4 q=37.0 size=    1280KiB time=00:00:07.38 bitrate=1420.2kbits/s speed=0.0227x elapsed=0:05:25.37    \nframe=  447 fps=1.4 q=43.0 size=    1280KiB time=00:00:07.41 bitrate=1413.9kbits/s speed=0.0228x elapsed=0:05:25.89    \nframe=  448 fps=1.4 q=42.1 size=    1280KiB time=00:00:07.43 bitrate=1410.7kbits/s speed=0.0228x elapsed=0:05:26.40    \nframe=  449 fps=1.4 q=41.9 size=    1280KiB time=00:00:07.45 bitrate=1407.5kbits/s speed=0.0228x elapsed=0:05:26.92    \nframe=  451 fps=1.4 q=36.9 size=    1280KiB time=00:00:07.48 bitrate=1401.3kbits/s speed=0.0229x elapsed=0:05:27.44    \nframe=  453 fps=1.4 q=42.1 size=    1280KiB time=00:00:07.51 bitrate=1395.0kbits/s speed=0.0229x elapsed=0:05:27.95    \nframe=  454 fps=1.4 q=42.0 size=    1280KiB time=00:00:07.53 bitrate=1392.0kbits/s speed=0.0229x elapsed=0:05:28.48    \nframe=  456 fps=1.4 q=38.2 size=    1280KiB time=00:00:07.56 bitrate=1385.8kbits/s speed=0.023x elapsed=0:05:29.00    \nframe=  458 fps=1.4 q=42.1 size=    1280KiB time=00:00:07.60 bitrate=1379.8kbits/s speed=0.0231x elapsed=0:05:29.53    \nframe=  459 fps=1.4 q=41.3 size=    1280KiB time=00:00:07.61 bitrate=1376.7kbits/s speed=0.0231x elapsed=0:05:30.06    \nframe=  461 fps=1.4 q=41.0 size=    1280KiB time=00:00:07.65 bitrate=1370.7kbits/s speed=0.0231x elapsed=0:05:30.57    \nframe=  463 fps=1.4 q=42.1 size=    1280KiB time=00:00:07.68 bitrate=1364.8kbits/s speed=0.0232x elapsed=0:05:31.09    \nframe=  464 fps=1.4 q=41.2 size=    1280KiB time=00:00:07.70 bitrate=1361.8kbits/s speed=0.0232x elapsed=0:05:31.60    \nframe=  465 fps=1.4 q=36.2 size=    1280KiB time=00:00:07.71 bitrate=1358.9kbits/s speed=0.0232x elapsed=0:05:32.11    \nframe=  467 fps=1.4 q=42.1 size=    1280KiB time=00:00:07.75 bitrate=1353.0kbits/s speed=0.0233x elapsed=0:05:32.63    \nframe=  468 fps=1.4 q=41.3 size=    1280KiB time=00:00:07.76 bitrate=1350.1kbits/s speed=0.0233x elapsed=0:05:33.14    \nframe=  469 fps=1.4 q=41.2 size=    1280KiB time=00:00:07.78 bitrate=1347.3kbits/s speed=0.0233x elapsed=0:05:33.67    \nframe=  471 fps=1.4 q=41.0 size=    1280KiB time=00:00:07.81 bitrate=1341.5kbits/s speed=0.0234x elapsed=0:05:34.18    \nframe=  473 fps=1.4 q=41.2 size=    1280KiB time=00:00:07.85 bitrate=1335.8kbits/s speed=0.0235x elapsed=0:05:34.69    \nframe=  474 fps=1.4 q=41.2 size=    1280KiB time=00:00:07.86 bitrate=1333.0kbits/s speed=0.0235x elapsed=0:05:35.21    \nframe=  476 fps=1.4 q=39.1 size=    1280KiB time=00:00:07.90 bitrate=1327.4kbits/s speed=0.0235x elapsed=0:05:35.73    \nframe=  478 fps=1.4 q=36.0 size=    1280KiB time=00:00:07.93 bitrate=1321.8kbits/s speed=0.0236x elapsed=0:05:36.25    \nframe=  479 fps=1.4 q=42.1 size=    1280KiB time=00:00:07.95 bitrate=1319.0kbits/s speed=0.0236x elapsed=0:05:36.77    \nframe=  482 fps=1.4 q=42.9 size=    1280KiB time=00:00:08.00 bitrate=1310.8kbits/s speed=0.0237x elapsed=0:05:37.28    \nframe=  484 fps=1.4 q=42.2 size=    1280KiB time=00:00:08.03 bitrate=1305.3kbits/s speed=0.0238x elapsed=0:05:37.79    \nframe=  485 fps=1.4 q=43.1 size=    1280KiB time=00:00:08.05 bitrate=1302.6kbits/s speed=0.0238x elapsed=0:05:38.31    \nframe=  487 fps=1.4 q=43.0 size=    1280KiB time=00:00:08.08 bitrate=1297.3kbits/s speed=0.0239x elapsed=0:05:38.84    \nframe=  488 fps=1.4 q=36.2 size=    1280KiB time=00:00:08.10 bitrate=1294.6kbits/s speed=0.0239x elapsed=0:05:39.35    \nframe=  491 fps=1.4 q=42.0 size=    1280KiB time=00:00:08.15 bitrate=1286.6kbits/s speed=0.024x elapsed=0:05:39.87    \nframe=  492 fps=1.4 q=42.0 size=    1280KiB time=00:00:08.16 bitrate=1284.0kbits/s speed=0.024x elapsed=0:05:40.39    \nframe=  494 fps=1.4 q=41.9 size=    1280KiB time=00:00:08.20 bitrate=1278.8kbits/s speed=0.0241x elapsed=0:05:40.91    \nframe=  494 fps=1.4 q=41.9 size=    1280KiB time=00:00:08.20 bitrate=1278.8kbits/s speed=0.024x elapsed=0:05:41.42    \nframe=  494 fps=1.4 q=41.9 size=    1280KiB time=00:00:08.20 bitrate=1278.8kbits/s speed=0.024x elapsed=0:05:41.93    \nframe=  496 fps=1.4 q=43.0 size=    1280KiB time=00:00:08.23 bitrate=1273.6kbits/s speed=0.024x elapsed=0:05:42.44    \nframe=  496 fps=1.4 q=43.0 size=    1280KiB time=00:00:08.23 bitrate=1273.6kbits/s speed=0.024x elapsed=0:05:42.96    \nframe=  498 fps=1.4 q=41.0 size=    1280KiB time=00:00:08.26 bitrate=1268.5kbits/s speed=0.0241x elapsed=0:05:43.48    \nframe=  500 fps=1.5 q=43.0 size=    1280KiB time=00:00:08.30 bitrate=1263.4kbits/s speed=0.0241x elapsed=0:05:44.00    \nframe=  503 fps=1.5 q=41.2 size=    1536KiB time=00:00:08.35 bitrate=1507.0kbits/s speed=0.0242x elapsed=0:05:44.52    \nframe=  504 fps=1.5 q=43.2 size=    1536KiB time=00:00:08.36 bitrate=1504.0kbits/s speed=0.0242x elapsed=0:05:45.02    \nframe=  506 fps=1.5 q=43.1 size=    1536KiB time=00:00:08.40 bitrate=1498.0kbits/s speed=0.0243x elapsed=0:05:45.54    \nframe=  507 fps=1.5 q=36.8 size=    1536KiB time=00:00:08.41 bitrate=1495.0kbits/s speed=0.0243x elapsed=0:05:46.05    \nframe=  509 fps=1.5 q=43.1 size=    1536KiB time=00:00:08.45 bitrate=1489.1kbits/s speed=0.0244x elapsed=0:05:46.58    \nframe=  511 fps=1.5 q=43.1 size=    1536KiB time=00:00:08.48 bitrate=1483.3kbits/s speed=0.0244x elapsed=0:05:47.08    \nframe=  512 fps=1.5 q=36.4 size=    1536KiB time=00:00:08.50 bitrate=1480.4kbits/s speed=0.0245x elapsed=0:05:47.61    \nframe=  513 fps=1.5 q=42.2 size=    1536KiB time=00:00:08.51 bitrate=1477.5kbits/s speed=0.0245x elapsed=0:05:48.13    \nframe=  515 fps=1.5 q=43.1 size=    1536KiB time=00:00:08.55 bitrate=1471.7kbits/s speed=0.0245x elapsed=0:05:48.66    \nframe=  516 fps=1.5 q=43.0 size=    1536KiB time=00:00:08.56 bitrate=1468.9kbits/s speed=0.0245x elapsed=0:05:49.16    \nframe=  518 fps=1.5 q=42.4 size=    1536KiB time=00:00:08.60 bitrate=1463.2kbits/s speed=0.0246x elapsed=0:05:49.68    \nframe=  520 fps=1.5 q=43.2 size=    1536KiB time=00:00:08.63 bitrate=1457.5kbits/s speed=0.0247x elapsed=0:05:50.19    \nframe=  522 fps=1.5 q=36.5 size=    1536KiB time=00:00:08.66 bitrate=1451.9kbits/s speed=0.0247x elapsed=0:05:50.71    \nframe=  523 fps=1.5 q=41.7 size=    1536KiB time=00:00:08.68 bitrate=1449.1kbits/s speed=0.0247x elapsed=0:05:51.23    \nframe=  525 fps=1.5 q=43.1 size=    1536KiB time=00:00:08.71 bitrate=1443.6kbits/s speed=0.0248x elapsed=0:05:51.75    \nframe=  527 fps=1.5 q=41.5 size=    1536KiB time=00:00:08.75 bitrate=1438.1kbits/s speed=0.0248x elapsed=0:05:52.26    \nframe=  529 fps=1.5 q=43.0 size=    1536KiB time=00:00:08.78 bitrate=1432.6kbits/s speed=0.0249x elapsed=0:05:52.78    \nframe=  531 fps=1.5 q=36.7 size=    1536KiB time=00:00:08.81 bitrate=1427.2kbits/s speed=0.025x elapsed=0:05:53.28    \nframe=  532 fps=1.5 q=41.5 size=    1536KiB time=00:00:08.83 bitrate=1424.5kbits/s speed=0.025x elapsed=0:05:53.80    \nframe=  534 fps=1.5 q=43.2 size=    1536KiB time=00:00:08.86 bitrate=1419.2kbits/s speed=0.025x elapsed=0:05:54.33    \nframe=  536 fps=1.5 q=41.4 size=    1536KiB time=00:00:08.90 bitrate=1413.8kbits/s speed=0.0251x elapsed=0:05:54.85    \nframe=  537 fps=1.5 q=43.3 size=    1536KiB time=00:00:08.91 bitrate=1411.2kbits/s speed=0.0251x elapsed=0:05:55.35    \nframe=  539 fps=1.5 q=43.3 size=    1536KiB time=00:00:08.95 bitrate=1406.0kbits/s speed=0.0251x elapsed=0:05:55.87    \nframe=  541 fps=1.5 q=39.2 size=    1536KiB time=00:00:08.98 bitrate=1400.7kbits/s speed=0.0252x elapsed=0:05:56.39    \nframe=  542 fps=1.5 q=43.1 size=    1536KiB time=00:00:09.00 bitrate=1398.1kbits/s speed=0.0252x elapsed=0:05:56.91    \nframe=  544 fps=1.5 q=43.0 size=    1536KiB time=00:00:09.03 bitrate=1393.0kbits/s speed=0.0253x elapsed=0:05:57.42    \nframe=  545 fps=1.5 q=36.7 size=    1536KiB time=00:00:09.05 bitrate=1390.4kbits/s speed=0.0253x elapsed=0:05:57.93    \nframe=  548 fps=1.5 q=43.2 size=    1536KiB time=00:00:09.10 bitrate=1382.8kbits/s speed=0.0254x elapsed=0:05:58.44    \nframe=  549 fps=1.5 q=43.9 size=    1536KiB time=00:00:09.11 bitrate=1380.2kbits/s speed=0.0254x elapsed=0:05:58.96    \nframe=  552 fps=1.5 q=43.9 size=    1536KiB time=00:00:09.16 bitrate=1372.7kbits/s speed=0.0255x elapsed=0:05:59.48    \nframe=  553 fps=1.5 q=43.1 size=    1536KiB time=00:00:09.18 bitrate=1370.2kbits/s speed=0.0255x elapsed=0:05:59.99    \nframe=  556 fps=1.5 q=42.2 size=    1536KiB time=00:00:09.23 bitrate=1362.8kbits/s speed=0.0256x elapsed=0:06:00.51    \nframe=  557 fps=1.5 q=43.1 size=    1536KiB time=00:00:09.25 bitrate=1360.4kbits/s speed=0.0256x elapsed=0:06:01.02    \nframe=  559 fps=1.5 q=43.1 size=    1536KiB time=00:00:09.28 bitrate=1355.5kbits/s speed=0.0257x elapsed=0:06:01.53    \nframe=  561 fps=1.5 q=42.1 size=    1536KiB time=00:00:09.31 bitrate=1350.6kbits/s speed=0.0257x elapsed=0:06:02.05    \nframe=  561 fps=1.5 q=42.1 size=    1536KiB time=00:00:09.31 bitrate=1350.6kbits/s speed=0.0257x elapsed=0:06:02.57    \nframe=  563 fps=1.6 q=43.1 size=    1536KiB time=00:00:09.35 bitrate=1345.8kbits/s speed=0.0258x elapsed=0:06:03.09    \nframe=  565 fps=1.6 q=36.4 size=    1536KiB time=00:00:09.38 bitrate=1341.0kbits/s speed=0.0258x elapsed=0:06:03.60    \nframe=  566 fps=1.6 q=42.1 size=    1536KiB time=00:00:09.40 bitrate=1338.6kbits/s speed=0.0258x elapsed=0:06:04.11    \nframe=  568 fps=1.6 q=43.1 size=    1536KiB time=00:00:09.43 bitrate=1333.9kbits/s speed=0.0259x elapsed=0:06:04.63    \nframe=  570 fps=1.6 q=36.3 size=    1536KiB time=00:00:09.46 bitrate=1329.2kbits/s speed=0.0259x elapsed=0:06:05.15    \nframe=  571 fps=1.6 q=42.1 size=    1536KiB time=00:00:09.48 bitrate=1326.9kbits/s speed=0.0259x elapsed=0:06:05.67    \nframe=  572 fps=1.6 q=43.0 size=    1536KiB time=00:00:09.50 bitrate=1324.6kbits/s speed=0.0259x elapsed=0:06:06.18    \nframe=  575 fps=1.6 q=36.0 size=    1536KiB time=00:00:09.55 bitrate=1317.6kbits/s speed=0.026x elapsed=0:06:06.69    \nframe=  576 fps=1.6 q=42.0 size=    1536KiB time=00:00:09.56 bitrate=1315.3kbits/s speed=0.0261x elapsed=0:06:07.22    \nframe=  578 fps=1.6 q=42.9 size=    1536KiB time=00:00:09.60 bitrate=1310.8kbits/s speed=0.0261x elapsed=0:06:07.73    \nframe=  580 fps=1.6 q=36.4 size=    1536KiB time=00:00:09.63 bitrate=1306.2kbits/s speed=0.0262x elapsed=0:06:08.24    \nframe=  582 fps=1.6 q=43.1 size=    1536KiB time=00:00:09.66 bitrate=1301.7kbits/s speed=0.0262x elapsed=0:06:08.76    \nframe=  583 fps=1.6 q=42.1 size=    1536KiB time=00:00:09.68 bitrate=1299.5kbits/s speed=0.0262x elapsed=0:06:09.27    \nframe=  586 fps=1.6 q=40.4 size=    1536KiB time=00:00:09.71 bitrate=1295.0kbits/s speed=0.0263x elapsed=0:06:09.79    \nframe=  587 fps=1.6 q=42.0 size=    1536KiB time=00:00:09.75 bitrate=1290.6kbits/s speed=0.0263x elapsed=0:06:10.30    \nframe=  589 fps=1.6 q=35.6 size=    1536KiB time=00:00:09.78 bitrate=1286.2kbits/s speed=0.0264x elapsed=0:06:10.82    \nframe=  590 fps=1.6 q=40.2 size=    1536KiB time=00:00:09.80 bitrate=1284.0kbits/s speed=0.0264x elapsed=0:06:11.33    \nframe=  592 fps=1.6 q=40.9 size=    1536KiB time=00:00:09.83 bitrate=1279.7kbits/s speed=0.0264x elapsed=0:06:11.85    \nframe=  594 fps=1.6 q=39.0 size=    1536KiB time=00:00:09.86 bitrate=1275.3kbits/s speed=0.0265x elapsed=0:06:12.37    \nframe=  596 fps=1.6 q=39.1 size=    1536KiB time=00:00:09.90 bitrate=1271.0kbits/s speed=0.0265x elapsed=0:06:12.88    \nframe=  598 fps=1.6 q=36.3 size=    1792KiB time=00:00:09.93 bitrate=1477.9kbits/s speed=0.0266x elapsed=0:06:13.40    \n[mp4 @ 00000249ff93b780] Starting second pass: moving the moov atom to the beginning of the file\n[out#0/mp4 @ 00000249ff93b680] video:1803KiB audio:0KiB subtitle:0KiB other streams:0KiB global headers:2KiB muxing overhead: 0.565594%\nframe=  600 fps=1.6 q=38.4 Lsize=    1813KiB time=00:00:09.96 bitrate=1490.3kbits/s speed=0.0267x elapsed=0:06:13.65    \nx265 [info]: frame I:      3, Avg QP:39.32  kb/s: 21342.24\nx265 [info]: frame P:    127, Avg QP:36.88  kb/s: 4769.12 \nx265 [info]: frame B:    470, Avg QP:42.30  kb/s: 458.13  \nx265 [info]: Weighted P-Frames: Y:10.2% UV:8.7%\n\nencoded 600 frames in 372.41s (1.61 fps), 1475.04 kb/s, Avg QP:41.13\n",
  "seconds": 374.016836643219,
  "probe_out": {}
}